<?xml version="1.0" encoding="UTF-8" standalone="no"?>
<!-- Created using Krita: https://krita.org -->

<svg
   width="92.038551pt"
   height="146.73232pt"
   viewBox="0 0 92.038552 146.73232"
   version="1.1"
   id="svg1"
   xmlns="http://www.w3.org/2000/svg"
   xmlns:svg="http://www.w3.org/2000/svg">
  <defs
     id="defs1" />
  <g
     id="g1"
     transform="translate(-55.031163,-2.2533431)">
    <path
       id="shape0"
       transform="translate(56.470578,3.6933392)"
       fill="#ffffff"
       fill-rule="evenodd"
       stroke="#001029"
       stroke-width="2.88"
       stroke-linecap="square"
       stroke-linejoin="bevel"
       d="m 2.35942,142.947 0.04801,-0.022 0.04977,-0.039 0.05168,-0.055 0.05373,-0.072 0.05595,-0.088 0.0583,-0.103 0.06082,-0.118 0.06349,-0.133 0.0663,-0.146 0.06927,-0.16 0.07239,-0.173 0.07567,-0.186 0.07909,-0.198 0.08267,-0.209 0.08639,-0.221 0.09027,-0.231 0.09431,-0.241 0.09849,-0.252 0.10282,-0.26 0.10732,-0.269 0.11195,-0.278 0.11674,-0.285 0.12168,-0.293 0.12678,-0.3 0.13202,-0.306 0.13743,-0.312 0.14297,-0.317 0.14867,-0.323 0.15453,-0.327 0.16053,-0.331 0.16669,-0.335 0.173,-0.338 0.17945,-0.341 0.18607,-0.343 0.19284,-0.344 0.19975,-0.346 0.20681,-0.347 0.21404,-0.347 0.22141,-0.346 0.22893,-0.346 0.23661,-0.345 0.24443,-0.344 0.25241,-0.341 0.26054,-0.339 0.26883,-0.336 0.27726,-0.332 0.28584,-0.328 0.29458,-0.324 0.30347,-0.32 0.31251,-0.313 0.32167,-0.308 0.3311,-0.302 0.3405,-0.295 0.3502,-0.287 0.36,-0.28 0.37,-0.272 0.38,-0.263 0.3903,-0.254 0.4007,-0.244 0.4113,-0.235 0.422,-0.223 0.4328,-0.213 0.4439,-0.201 0.6247,-0.232 0.6065,-0.238 0.5885,-0.243 0.5709,-0.248 0.5535,-0.254 0.5364,-0.258 0.5195,-0.263 0.5031,-0.268 0.4868,-0.272 0.4708,-0.276 0.4552,-0.28 0.4398,-0.284 0.4248,-0.287 0.4099,-0.29 0.3953,-0.294 0.3812,-0.297 0.3672,-0.299 0.3536,-0.302 0.3401,-0.304 0.3271,-0.307 0.3143,-0.308 0.3018,-0.311 0.2895,-0.311 0.2776,-0.314 0.266,-0.314 0.2545,-0.315 0.2435,-0.316 0.2328,-0.317 0.2221,-0.317 0.212,-0.318 0.2021,-0.317 0.1923,-0.317 0.1831,-0.317 0.1739,-0.317 0.1652,-0.315 0.1566,-0.315 0.1485,-0.313 0.1405,-0.312 0.1329,-0.311 0.1255,-0.309 0.1184,-0.307 0.1117,-0.305 0.1052,-0.302 0.0989,-0.3 0.093,-0.297 0.0874,-0.294 0.0821,-0.292 0.0769,-0.288 0.0722,-0.284 0.0677,-0.281 0.0635,-0.277 0.0596,-0.272 0.056,-0.269 0.0526,-0.264 0.0495,-0.259 0.0468,-0.255 0.0443,-0.249 0.0421,-0.245 0.0402,-0.239 0.0385,-0.233 0.0372,-0.227 0.0362,-0.221 0.0354,-0.215 0.4706,-0.124 0.4799,-0.141 0.488,-0.157 0.495,-0.173 0.501,-0.191 0.5059,-0.206 0.5096,-0.223 0.5122,-0.239 0.5138,-0.255 0.5141,-0.27 0.5135,-0.287 0.5118,-0.302 0.5088,-0.318 0.5049,-0.333 0.4998,-0.348 0.4935,-0.364 0.4863,-0.379 0.4779,-0.393 0.4684,-0.409 0.4578,-0.423 0.4461,-0.438 0.4333,-0.452 0.4194,-0.467 0.4043,-0.481 0.3882,-0.495 0.3711,-0.51 0.3527,-0.5228 0.3332,-0.537 0.3127,-0.5507 0.2911,-0.5642 0.2684,-0.5778 0.2445,-0.5911 0.2196,-0.6044 0.1935,-0.6175 0.1664,-0.6305 0.1382,-0.6434 0.1087,-0.6561 0.0784,-0.6689 0.0467,-0.6814 0.0141,-0.6938 -0.0197,-0.7062 -0.0545,-0.7184 -0.0905,-0.7305 -0.1276,-0.7424 -0.1658,-0.7543 -0.2051,-0.7661 -0.2454,-0.7777 -0.287,-0.7892 -0.3295,-0.8007 -0.3732,-0.8119 -0.418,-0.8231 -0.464,-0.8342 -0.5109,-0.8451 -0.559,-0.8559 -0.6083,-0.8667 -0.6585,-0.8773 -0.71,-0.8877 -0.7625,-0.8981 -0.8161,-0.9084 -0.8709,-0.9186 -0.9267,-0.9285 -0.9836,-0.9385 -1.0416,-0.9483 -0.9743,-0.775 -0.8992,-0.8234 -0.8254,-0.8693 -0.7529,-0.9127 -0.6817,-0.9536 -0.6119,-0.9919 -0.5433,-1.0277 -0.4761,-1.061 -0.4102,-1.0919 -0.3456,-1.12 -0.2824,-1.1458 -0.2203,-1.169 -0.1598,-1.1897 -0.1004,-1.2079 -0.0424,-1.2235 0.0143,-1.2367 0.0697,-1.2472 0.1237,-1.2553 0.1765,-1.2609 0.2279,-1.2639 0.278,-1.2644 0.3268,-1.2624 0.3743,-1.2579 0.4204,-1.2509 0.4653,-1.2412 0.5089,-1.2292 0.551,-1.2146 0.5919,-1.1974 0.6316,-1.1777 0.6698,-1.1556 0.7067,-1.1308 0.7424,-1.1037 0.7767,-1.0738 0.8097,-1.0417 0.8413,-1.0068 0.8718,-0.9695 0.9008,-0.9296 0.9285,-0.8873 0.955,-0.8425 0.98,-0.795 1.0039,-0.7451 1.0263,-0.6926 1.0475,-0.6377 1.0673,-0.5802 1.0858,-0.5202 1.1031,-0.4576 1.1189,-0.3926 1.1335,-0.325 1.1468,-0.2549 1.1587,-0.1823 1.1693,-0.1071 1.1787,-0.0295 1.1866,0.0508 1.1933,0.1334 1.1987,0.2187 1.2027,0.3064 1.2055,0.3967 1.2069,0.4895 1.2069,0.5848 7.0525,5.9313 L 89.6866,15.1167 84.098,10.5385 81.4626,8.85233 78.8325,7.32383 76.2104,5.94979 73.599,4.727 71.001,3.65227 68.419,2.72239 65.8556,1.93416 63.3135,1.28437 60.7955,0.769822 58.3041,0.387314 55.842,0.133643 53.4118,0.00560605 51.0163,0 48.6581,0.113622 46.3398,0.34327 44.0641,0.685741 41.8337,1.13783 39.6512,1.69634 37.5194,2.35807 35.4407,3.1198 33.418,3.97835 31.4538,4.9305 l -1.9029,1.04255 -1.8391,1.12976 -1.7724,1.21376 -1.7033,1.29455 -1.6314,1.37218 -1.5569,1.4465 -1.4797,1.5177 -1.3998,1.5857 -1.3174,1.6505 -1.2321,1.7121 -1.1443,1.7704 -1.0539,1.8256 -0.9606,1.8776 -0.8649,1.9264 -0.7664,1.9719 L 10.1635,30.282 9.602,32.3355 9.147,34.4249 8.80111,36.547 8.567,38.6987 8.44732,40.8768 8.44474,43.078 l 0.11718,2.2212 0.23959,2.2379 0.36467,2.2514 0.4924,2.2618 0.62282,2.2689 0.7558,2.2728 0.8916,2.2736 1.03,2.271 1.171,2.2655 1.3147,2.2565 1.461,2.2444 1.6101,2.2292 1.7618,2.2107 1.9161,2.1889 2.073,2.1641 2.2328,2.136 2.3951,2.1047 0.4911,0.5499 0.4682,0.5372 0.4456,0.5247 0.4234,0.5123 0.4016,0.5002 0.3802,0.4882 0.3592,0.4766 0.3385,0.465 0.3182,0.4536 0.2982,0.4426 0.2788,0.4316 0.2596,0.4209 0.2409,0.4103 0.2224,0.4 0.2045,0.3899 0.1868,0.38 0.1696,0.3702 0.1527,0.3607 0.1362,0.3514 0.1202,0.3422 0.1043,0.3334 0.0891,0.3246 0.0741,0.316 0.0595,0.3078 0.0452,0.2996 0.0315,0.2917 0.018,0.2839 0.0049,0.2764 -0.0077,0.2691 -0.0201,0.262 -0.0319,0.2551 -0.0436,0.2483 -0.0547,0.2418 -0.0655,0.2355 -0.0758,0.2293 -0.086,0.2234 -0.0955,0.2178 -0.1049,0.2121 -0.1137,0.2069 -0.1222,0.2017 -0.1304,0.1968 -0.1381,0.1921 -0.1455,0.1876 -0.1525,0.1832 -0.1591,0.1791 -0.1653,0.1752 -0.1711,0.1715 -0.1766,0.1679 -0.1818,0.1646 -0.1864,0.1615 -0.1907,0.1586 -0.1947,0.1559 -0.1983,0.1533 -0.2015,0.151 -0.2042,0.1489 -0.2067,0.147 -0.2088,0.1453 -0.2104,0.1437 -0.2117,0.1424 -0.2126,0.1413 -0.2132,0.1404 -0.2133,0.1397 -0.213,0.1391 -0.7421,-1.8554 -0.7768,-1.7166 -0.8088,-1.5815 -0.8382,-1.4499 -0.8647,-1.3222 -0.8887,-1.1979 -0.9099,-1.0773 -0.9285,-0.9604 -0.9442,-0.8471 -0.9574,-0.7374 -0.9678,-0.6314 -0.9755,-0.5291 -0.9805,-0.4303 -0.9828,-0.3352 -0.9825,-0.2437 -0.9793,-0.156 -0.9736,-0.0717 -0.9651,0.0088 -0.9539,0.0856 -0.94,0.159 -0.9234,0.2285 L 9.92156,84.3 9.03942,84.6569 8.18197,85.0724 7.35191,85.5431 6.55195,86.0652 5.78478,86.635 5.0531,87.249 4.35961,87.9035 3.70703,88.5948 3.09803,89.3194 2.53534,90.0735 2.02164,90.8536 1.55963,91.656 1.15203,92.4771 0.801523,93.3132 0.510817,94.1607 0.282611,95.0159 0.119606,95.8752 0.0245019,96.735 0,97.5916 l 0.0488008,0.8498 0.1248042,0.8393 0.203508,0.8253 0.284913,0.807 0.369014,0.787 0.45583,0.761 0.54533,0.732 0.63754,0.7 0.73244,0.665 0.83006,0.624 0.93036,0.582 1.03337,0.534 1.13908,0.484 1.2475,0.43 1.3586,0.373 1.47245,0.31 1.5889,0.246 1.7081,0.177 1.8301,0.105 1.9547,0.029 2.082,-0.051 2.212,-0.134 0.0559,0.293 0.0433,0.292 0.0311,0.29 0.0189,0.289 0.0069,0.286 -0.0048,0.285 -0.0165,0.283 -0.0278,0.281 -0.0391,0.279 -0.0501,0.277 -0.0611,0.275 -0.0717,0.274 -0.0822,0.271 -0.0926,0.27 -0.1027,0.267 -0.1126,0.266 -0.1225,0.263 -0.1321,0.262 -0.1415,0.26 -0.1507,0.257 -0.1598,0.256 -0.1687,0.254 -0.1774,0.251 -0.1859,0.25 -0.1943,0.247 -0.2024,0.245 -0.2104,0.244 -0.2181,0.241 -0.2258,0.239 -0.2333,0.236 -0.2405,0.235 -0.2475,0.233 -0.2545,0.23 -0.2611,0.228 -0.2677,0.226 -0.274,0.224 -0.2802,0.222 -0.2862,0.219 -0.292,0.217 -0.2976,0.215 -0.3031,0.212 -0.3083,0.21 -0.3134,0.208 -0.3183,0.206 -0.323,0.203 -0.3276,0.201 -0.3319,0.199 -0.336,0.196 -0.3401,0.194 -0.3439,0.192 -0.3475,0.189 -0.351,0.186 -0.3542,0.185 -0.3574,0.182 -0.3602,0.179 -0.3629,0.177 -0.3655,0.174 -0.3679,0.172 -0.3701,0.17 -0.372,0.167 -0.3739,0.164 -0.37551,0.162 -0.37697,0.16 -0.48003,0.31 -0.46083,0.321 -0.44198,0.331 -0.42348,0.342 -0.40533,0.351 -0.38754,0.36 -0.37009,0.368 -0.353,0.376 -0.33627,0.383 -0.31988,0.391 -0.30384,0.396 -0.28816,0.402 -0.27283,0.408 -0.25786,0.412 -0.24322,0.416 -0.22896,0.42 -0.21503,0.423 -0.20146,0.425 -0.18824,0.428 -0.17538,0.429 -0.16286,0.43 -0.15071,0.431 -0.13889,0.431 -0.12744,0.43 -0.11633,0.429 -0.10558,0.427 -0.09518,0.426 -0.08512,0.422 -0.07544,0.42 -0.06608,0.416 -0.0571,0.411 -0.04845,0.407 -0.04017,0.401 -0.03223,0.396 -0.02464,0.39 -0.01742,0.382 -0.01053,0.375 -0.004,0.367 0.00217,0.359 0.00799,0.35 0.01347,0.34 0.01858,0.331 0.02336,0.32 0.02776,0.308 0.03184,0.297 0.03554,0.286 0.0389,0.272 0.04191,0.259 0.04456,0.246 0.04687,0.231 0.04882,0.217 0.05042,0.202 0.05166,0.185 0.05256,0.17 0.0531,0.152 0.05329,0.135 0.05312,0.118 0.05262,0.098 0.05175,0.08 0.05053,0.061 0.04896,0.041 c 0.00124,0.974 -0.01808,1.185 -0.05796,0.635 -0.02003,-0.277 0.02989,-0.482 0.14976,-0.616" />
    <path
       id="shape9"
       transform="translate(72.035993,14.387297)"
       fill="#82e5ea"
       fill-rule="evenodd"
       stroke-opacity="0"
       stroke="#000000"
       stroke-width="0"
       stroke-linecap="square"
       stroke-linejoin="bevel"
       d="m 49.1041,1.9027 c 21.7109,9.4453 26.1734,14.1089 -0.5025,10.14 -34.88,-14.60609 -51.25523,27.0009 -38.288,46.6848 2.0348,4.9223 30.0095,21.7292 5.2885,35.8289 l 0.2443,-3.0324 c 11.3695,-8.094 6.7772,-15.9346 -1.8423,-23.7113 -29.0765,-23.88 -10.70629,-78.6782 35.1,-65.91 z" />
    <path
       id="shape11"
       transform="translate(59.203303,90.204513)"
       fill="#82e5ea"
       fill-rule="evenodd"
       stroke-opacity="0"
       stroke="#000000"
       stroke-width="0"
       stroke-linecap="square"
       stroke-linejoin="bevel"
       d="m 18.2867,18.2755 c 1.3171,-0.1266 2.8741,-0.2533 4.5512,-0.3799 C 22.1537,34.6852 8.30965,37.6195 6.71962,38.7628 -1.17021,44.8481 0.242589,50.9472 0.0158621,51.4687 -0.243071,53.3155 2.72539,43.0012 4.73303,42.6202 6.1391,40.7976 4.193,41.2713 7.76423,39.6648 14.7701,36.6646 26.1206,30.4507 24.3917,17.6755 c -5.6516,-41.7614 -47.7168,3.8441 -5.925,1.875 z" />
    <path
       id="shape14"
       transform="translate(65.692177,4.8689645)"
       fill="#337d98"
       fill-rule="evenodd"
       stroke-opacity="0"
       stroke="#000000"
       stroke-width="0"
       stroke-linecap="square"
       stroke-linejoin="bevel"
       d="m 53.5878,11.9226 -1.022,-0.2418 -2.0313,-0.4045 -1.9901,-0.3207 -1.9487,-0.2387 -1.9067,-0.1585 -1.8645,-0.0804 -1.8218,-0.0041 -1.7789,0.0704 -1.7355,0.1429 -1.6917,0.2135 -1.6476,0.2824 -1.6032,0.3492 -1.5583,0.4142 -1.513,0.4773 -1.4674,0.5385 -1.4215,0.5979 -1.3751,0.6553 -1.3284,0.7108 -1.2812,0.7646 -1.2339,0.8163 -1.1859,0.8662 -1.1378,0.9142 -1.0892,0.9603 -1.0402,1.0046 -0.9909,1.0469 -0.9412,1.0873 -0.8911,1.126 -0.8406,1.1626 -0.7899,1.1974 -0.7386,1.2303 -0.6871,1.2614 -0.6351,1.2904 -0.58285,1.3178 -0.53015,1.3431 -0.4771,1.3665 -0.42367,1.3882 -0.36986,1.4078 -0.3157,1.4256 -0.26115,1.4416 -0.20623,1.4556 -0.15095,1.4678 -0.09528,1.478 -0.03925,1.4864 0.01716,1.4929 0.07394,1.4975 0.13109,1.5002 0.18861,1.501 0.24651,1.4999 0.30478,1.497 0.36342,1.4922 0.42243,1.4855 0.48182,1.4768 0.54158,1.4663 0.60175,1.454 0.6622,1.4397 0.7231,1.4235 0.7843,1.4054 0.846,1.3856 0.9079,1.3637 0.9703,1.34 1.0331,1.3144 1.0961,1.2869 1.1597,1.2576 0.7103,0.6266 0.6854,0.6205 0.6604,0.6146 0.6359,0.6085 0.6113,0.6025 0.5871,0.5964 0.5631,0.5904 0.5391,0.5844 0.5154,0.5783 0.492,0.5724 0.4686,0.5662 0.4455,0.5603 0.4225,0.5542 0.3998,0.5482 0.3773,0.5421 0.3549,0.5361 0.3327,0.5301 0.3107,0.5241 0.289,0.518 0.2673,0.512 0.246,0.506 0.2247,0.4999 0.2037,0.4939 0.1829,0.4878 0.1622,0.4819 0.1417,0.4758 0.1215,0.4698 0.1014,0.4637 0.0815,0.4577 0.0619,0.4517 0.0423,0.4456 0.023,0.4397 0.0039,0.4336 -0.0151,0.4275 -0.0338,0.4215 -0.0523,0.4155 -0.0707,0.4095 -0.0889,0.4035 -0.1068,0.3974 -0.1246,0.3914 -0.1423,0.3853 -0.1596,0.3794 -0.1769,0.3733 -0.1939,0.3672 -0.2107,0.3613 -0.2273,0.3552 -0.2439,0.3492 -0.2601,0.3431 -0.2761,0.3372 -0.2921,0.3311 -0.3077,0.325 -0.3232,0.3191 -0.3386,0.313 -0.3536,0.307 -0.3686,0.301 -0.3834,0.2949 -0.3979,0.2889 -0.4122,0.2832 -0.4264,0.277 -0.4404,0.27 -0.4542,0.265 -0.4677,0.259 -0.4812,0.253 0.0329,-0.622 0.03,-0.432 0.0253,-0.278 0.0186,-0.162 0.0102,-0.0826 -10e-5,-0.0399 -0.0123,-0.0342 -0.0261,-0.0653 -0.042,-0.1332 -0.0595,-0.238 -0.079,-0.3796 -0.1003,-0.5581 0.5637,-0.417 0.5247,-0.4181 0.4866,-0.419 0.4494,-0.4198 0.4131,-0.4205 0.3777,-0.421 0.3431,-0.4215 0.3094,-0.4217 0.2767,-0.4218 0.2447,-0.4219 0.2137,-0.4217 0.1835,-0.4214 0.1543,-0.421 0.1259,-0.4205 0.0984,-0.4197 0.0718,-0.419 0.046,-0.4179 0.0212,-0.4169 L 26.6366,90.5101 26.6108,90.0958 26.5627,89.6831 26.4933,89.272 26.4035,88.8627 26.2941,88.4554 26.166,88.0501 26.0202,87.6469 25.8574,87.2462 25.6786,86.8479 25.4846,86.4522 25.2764,86.0593 25.0548,85.6692 24.8207,85.2822 24.575,84.8983 24.3186,84.5177 24.0522,84.1406 23.777,83.767 23.4936,83.3971 23.203,83.0311 22.9062,82.6691 22.6038,82.3111 22.2969,81.9575 21.9864,81.6082 21.673,81.2635 21.3577,80.9234 21.0414,80.5881 20.725,80.2578 20.4093,79.9325 20.0952,79.6125 19.7836,79.2978 19.4753,78.9886 19.1714,78.685 18.8726,78.3872 18.5798,78.0953 18.2939,77.8095 18.0159,77.5298 17.7465,77.2564 17.4867,76.9895 17.2373,76.7291 16.9992,76.4755 16.7733,76.2288 16.5605,75.989 16.3617,75.7564 16.1778,75.5311 14.1658,73.4082 12.2985,71.2702 10.5736,69.1194 8.98857,66.9585 7.54103,64.7898 6.22856,62.6161 5.04874,60.4397 3.99914,58.2631 3.07734,56.089 2.28093,53.9198 1.60748,51.7581 1.05458,49.6063 0.619801,47.4669 0.300725,45.3426 0.0949314,43.2358 0,41.149 0.0135105,39.0847 0.133042,37.0455 0.356176,35.0339 0.680489,33.0524 1.10356,31.1035 l 0.51942,-1.9137 0.61333,-1.8761 0.70483,-1.836 0.79392,-1.7932 0.88057,-1.7481 0.96481,-1.7003 1.04662,-1.65 1.12603,-1.5973 1.203,-1.5421 1.27751,-1.4842 1.3497,-1.4239 1.4194,-1.3611 1.4867,-1.29574 1.5516,-1.22787 1.6141,-1.15748 1.674,-1.08457 1.7317,-1.00915 1.7869,-0.93122 1.8396,-0.85075 1.89,-0.76778 1.938,-0.68229 1.9834,-0.59427 2.0266,-0.50374 2.0672,-0.410696 2.1054,-0.31513 L 38.8392,0.129769 41.0139,0.0133245 43.2196,0 l 2.2343,0.092313 2.2604,0.200468 2.2841,0.311142 2.3055,0.424337 2.3243,0.54004 2.3408,0.65827 2.3548,0.77901 2.3665,0.90228 2.3757,1.02806 2.3825,1.15636 2.3868,1.28717 2.3888,1.42051 c 2.1846,1.29374 4.3084,2.58734 5.7848,3.88104 l -18.6511,1.35 -4.77,-2.1084" />
    <path
       id="shape141"
       transform="translate(59.028009,92.74924)"
       fill="#337d98"
       fill-rule="evenodd"
       stroke-opacity="0"
       stroke="#000000"
       stroke-width="0"
       stroke-linecap="square"
       stroke-linejoin="bevel"
       d="m 18.387,13.5557 0.2625,2.085 c -36.1191,3.0028 -3.9383,-35.1793 4.4025,-2.01 0.7886,10.8999 -0.8032,15.4985 -11.8734,21.112 C 7.60373,36.3806 1.57981,38.4349 0.0391652,49.553 -0.198874,44.7607 0.445146,38.5594 7.76304,34.3855 20.7997,27.9064 21.375084,24.987814 20.839684,15.938114 16.878784,13.376414 14.0684,8.19022 18.387,13.5557 Z" />
    <path
       id="shape20"
       transform="translate(65.181024,96.597402)"
       fill="#ffffff"
       fill-rule="evenodd"
       stroke="#001029"
       stroke-width="2.88"
       stroke-linecap="square"
       stroke-linejoin="bevel"
       d="M 12.114583,8.3918917 C 5.4239225,8.9642617 -2.57082,7.17595 0.758971,2.5826 5.02411,-3.30104 10.538012,1.9748838 12.325512,8.1393338"
       style="stroke-linejoin:miter" />
    <path
       id="shape21"
       transform="translate(80.64,92.13)"
       fill="none"
       stroke="#001029"
       stroke-width="2.88"
       stroke-linecap="square"
       stroke-linejoin="miter"
       stroke-miterlimit="2"
       d="m 0,0 c 2.53182,2.58106 4.42183,6.25734 5.26676,10.0528 0.72686,2.7735 1.18199,6.6185 0.48,10.3747" />
    <path
       id="shape03"
       transform="translate(77.579997,105.2636)"
       fill="none"
       stroke="#001029"
       stroke-width="2.4"
       stroke-linecap="square"
       stroke-linejoin="miter"
       stroke-miterlimit="2"
       d="M -0.04837192,-0.07871506 C 0.52378108,-0.88419876 1.7391839,5.2694237 1.224186,6.9547719" />
    <path
       id="shape29"
       transform="translate(60.772496,130.66499)"
       fill="none"
       stroke="#ffffff"
       stroke-width="0.48"
       stroke-linecap="square"
       stroke-linejoin="miter"
       stroke-miterlimit="2"
       d="M 5.22,0 C 2.24691,1.79935 0.340742,5.83989 0,7.3125" />
  </g>
</svg>
