<?xml version="1.0" encoding="UTF-8" standalone="no"?>
<!-- Created using Krita: https://krita.org -->

<svg
   width="74.518501pt"
   height="40.076881pt"
   viewBox="0 0 74.518502 40.076883"
   version="1.1"
   id="svg1"
   xmlns="http://www.w3.org/2000/svg"
   xmlns:svg="http://www.w3.org/2000/svg">
  <defs
     id="defs1" />
  <g
     id="g3"
     transform="translate(-113.5423,-78.127068)">
    <path
       id="shape1"
       transform="translate(114.98186,79.559995)"
       fill="#ffffff"
       fill-rule="evenodd"
       stroke="#001029"
       stroke-width="2.88"
       stroke-linecap="square"
       stroke-linejoin="bevel"
       d="m 6.09812,0 c 3.45996,0.344259 1.81992,5.42852 2.18988,10.9328 2.6301,-0.2243 11.1401,0.0915 15.4501,0.3472 -4.041,9.0933 23.5593,7.5528 21.36,0.36 l 26.04,0.48 C 79.8266,47.6603 -26.0542,47.0084 6.09812,0 Z" />
    <path
       id="shape7"
       transform="translate(120.59423,92.159994)"
       fill="#82e5ea"
       fill-rule="evenodd"
       stroke-opacity="0"
       stroke="#000000"
       stroke-width="0"
       stroke-linecap="square"
       stroke-linejoin="bevel"
       d="M 57.6208,0.795 49.6403,0.703622 C 49.8786,9.38069 6.91169,13.6432 5.69798,0.250625 L 0.620767,0 C -7.3336,31.1703 63.8987,19.5857 57.6208,0.795 Z" />
    <path
       id="shape15"
       transform="translate(115.81293,82.049999)"
       fill="#337d98"
       fill-rule="evenodd"
       stroke-opacity="0"
       stroke="#000000"
       stroke-width="0"
       stroke-linecap="square"
       stroke-linejoin="bevel"
       d="M 5.50707,0 C -24.0949,40.4316 75.5906,44.2854 69.1671,11.04 L 62.1137,10.8483 C 64.0495,31.2023 1.53419,31.8714 5.86839,9.87464 Z" />
  </g>
</svg>
