<?xml version="1.0" encoding="UTF-8" standalone="no"?>
<!-- Created using Krita: https://krita.org -->

<svg
   width="126.7083pt"
   height="99.131935pt"
   viewBox="0 0 126.7083 99.131938"
   version="1.1"
   id="svg1"
   xmlns="http://www.w3.org/2000/svg"
   xmlns:svg="http://www.w3.org/2000/svg">
  <defs
     id="defs1" />
  <g
     id="g4"
     transform="translate(-190.26244,-86.213845)">
    <path
       id="shape3"
       transform="translate(191.70142,87.656256)"
       fill="#ffffff"
       fill-rule="evenodd"
       stroke="#001029"
       stroke-width="2.88"
       stroke-linecap="square"
       stroke-linejoin="bevel"
       d="m 83.2486,44.8537 c -0.737749,2.715075 -5.0172,11.1288 -8.16,15.36 -7.289,9.2144 -21.0352,31.9894 15.9024,36.0348 49.107,0.2941 39.35,-61.6311 -4.2324,-85.6248 C 69.4139,-1.41274 62.1061,-2.76356 29.6986,4.26374 L 4.37857,3.42374 C -13.7112,32.0581 28.8977,27.9405 47.6986,23.1637 c 8.7784,-2.8312 10.9587,-4.7953 19.26,1.2 l -3.81,0.96 c -1.4228,2.698 -0.0945,-0.7995 -3.09,4.2 -2.276,2.303 -1.3486,3.3509 -13.1086,11.2841 -6.6573,3.1534 -6.3868,10.0582 -2.9074,12.1222 4.5752,2.714 8.7732,2.2842 13.9192,0.7309 7.1947,-0.875 13.9638,-6.1102 14.2168,-5.7472 2.1339,3.0617 -13.8968,20.6656 -19.2,16.68 2.114497,2.728284 5.328703,2.777213 8.787105,1.502537 C 71.288147,62.586514 82.661929,49.042097 78.0286,53.7637 84.312428,46.34671 84.783015,41.1429 83.317008,43.69076" />
    <ellipse
       id="shape4"
       transform="translate(236.85,134.94)"
       rx="1.08"
       ry="0.95999998"
       cx="1.08"
       cy="0.95999998"
       fill="#000f28"
       fill-rule="evenodd"
       stroke-opacity="0"
       stroke="#000000"
       stroke-width="0"
       stroke-linecap="square"
       stroke-linejoin="bevel" />
    <path
       id="shape5"
       transform="translate(268.43998,118.19999)"
       fill="#82e5ea"
       fill-rule="evenodd"
       stroke-opacity="0"
       stroke="#000000"
       stroke-width="0"
       stroke-linecap="square"
       stroke-linejoin="bevel"
       d="M 6.645,34.365 C -11.2551,57.8564 39.1251,66.277 38.37,37.17 37.8346,16.5326 30.1212,7.34775 22.08,0 l 2.34,21.51 C 20.0679,16.2934 17.3934,5.5075 14.7126,4.48541 L 0,7.56 c 16.3634,2.20904 18.5784,11.144 6.645,26.805 z" />
    <path
       id="shape6"
       transform="translate(194.81916,92.519997)"
       fill="#82e5ea"
       fill-rule="evenodd"
       stroke-opacity="0"
       stroke="#000000"
       stroke-width="0"
       stroke-linecap="square"
       stroke-linejoin="bevel"
       d="M 12.6608,0.36 2.07083,0 C -8.99802,22.6091 27.3633,15.5763 38.9408,11.88 l 20.43,-8.55 C 46.0829,0.758292 0.762297,14.2253 12.6608,0.36 Z" />
    <path
       id="shape01"
       transform="translate(276.06,122.85)"
       fill="#337d98"
       fill-rule="evenodd"
       stroke-opacity="0"
       stroke="#000000"
       stroke-width="0"
       stroke-linecap="square"
       stroke-linejoin="bevel"
       d="M 0,1.68 13.26,0 C 18.624,15.2396 19.1859,16.6935 12.03,26.43 12.4437,12.6649 13.9006,2.16638 0,1.68 Z" />
    <path
       id="shape12"
       transform="translate(289.79999,137.64)"
       fill="#337d98"
       fill-rule="evenodd"
       stroke-opacity="0"
       stroke="#000000"
       stroke-width="0"
       stroke-linecap="square"
       stroke-linejoin="bevel"
       d="M 0,25.2 C 10.3782,22.0965 8.44413,5.69083 2.88,0 L 0.72,9 Z" />
    <path
       id="shape13"
       transform="translate(192.93851,92.4975)"
       fill="#337d98"
       fill-rule="evenodd"
       stroke-opacity="0"
       stroke="#000000"
       stroke-width="0"
       stroke-linecap="square"
       stroke-linejoin="bevel"
       d="M 41.6015,11.4825 C 26.2805,14.3057 -5.35317,16.8001 3.96647,0 -13.9197,28.2169 33.4578,20.4473 51.2465,16.2075 Z" />
    <path
       id="shape16"
       transform="translate(259.3331,145.92)"
       fill="#337d98"
       fill-rule="evenodd"
       stroke-opacity="0"
       stroke="#000000"
       stroke-width="0"
       stroke-linecap="square"
       stroke-linejoin="bevel"
       d="M 10.4269,0 C -5.03428,18.8893 -5.13886,34.0937 22.6894,36.5325 -3.73454,31.0242 -0.960229,16.6292 10.4269,0 Z" />
    <path
       id="shape17"
       transform="translate(250.71748,130.16999)"
       fill="#337d98"
       fill-rule="evenodd"
       stroke-opacity="0"
       stroke="#000000"
       stroke-width="0"
       stroke-linecap="square"
       stroke-linejoin="bevel"
       d="M 23.2425,0 C 22.5927,10.4019 6.297437,21.662584 0.30783701,22.925684 5.053047,20.812084 16.3765,13.5051 23.2425,0 Z" />
    <path
       id="shape18"
       transform="translate(257.75998,109.43177)"
       fill="none"
       stroke="#001029"
       stroke-width="2.88"
       stroke-linecap="square"
       stroke-linejoin="miter"
       stroke-miterlimit="2"
       d="M 32.04,36.8032 C 41.2313,10.6489 24.2289,-6.73993 0,2.51322" />
    <path
       id="shape19"
       transform="translate(282.13775,146.53499)"
       fill="#ffffff"
       fill-rule="evenodd"
       stroke="#001029"
       stroke-width="2.64"
       stroke-linecap="square"
       stroke-linejoin="bevel"
       d="M 7.0483824,1.0945316 C 5.7002824,8.2554916 -4.45929,13.8761 2.14225,15.975 9.81309,18.4138 12.5265,7.51923 7.78224,0.135"
       style="stroke-linecap:round;stroke-linejoin:round" />
    <path
       id="shape22"
       transform="translate(254.61,125.355)"
       fill="#000f28"
       fill-rule="evenodd"
       stroke-opacity="0"
       stroke="#000000"
       stroke-width="0"
       stroke-linecap="square"
       stroke-linejoin="bevel"
       d="M 6.96,3.48 6.937,3.074 6.868,2.682 6.757,2.306 6.606,1.95 6.418,1.614 6.195,1.303 5.941,1.019 5.657,0.765 5.346,0.542 5.01,0.354 4.654,0.203 4.278,0.092 3.886,0.023 3.48,0 3.074,0.023 2.682,0.092 2.306,0.203 1.95,0.354 1.614,0.542 1.303,0.765 1.019,1.019 0.765,1.303 0.747,1.328 1.146,1.136 1.62,1.065 2.094,1.136 2.506,1.334 2.831,1.636 3.044,2.019 3.12,2.46 3.044,2.901 2.831,3.284 2.506,3.586 2.094,3.784 1.62,3.855 1.146,3.784 0.734,3.586 0.409,3.284 0.196,2.901 0.134,2.54 0.092,2.682 0.023,3.074 0,3.48 0.023,3.886 0.092,4.278 0.203,4.654 0.354,5.01 0.542,5.346 0.765,5.657 1.019,5.941 1.303,6.195 1.614,6.418 1.95,6.606 2.306,6.757 2.682,6.868 3.074,6.937 3.48,6.96 3.886,6.937 4.278,6.868 4.654,6.757 5.01,6.606 5.346,6.418 5.657,6.195 5.941,5.941 6.195,5.657 6.418,5.346 6.606,5.01 6.757,4.654 6.868,4.278 6.937,3.886 6.96,3.48" />
    <path
       id="shape23"
       transform="translate(243.89998,137.24999)"
       fill="#b2a1d7"
       fill-rule="evenodd"
       stroke="#001029"
       stroke-width="0.96"
       stroke-linecap="square"
       stroke-linejoin="bevel"
       d="M 5.7806964,5.0655807 C 6.5421664,7.3676107 2.618834,12.755247 0.35069642,15.804439 4.4017064,19.667939 15.514996,9.2546907 18.830696,0.20558066 14.521296,2.0286007 10.242686,4.0055307 5.7806964,5.0655807 Z" />
    <path
       id="shape24"
       transform="translate(229.26,140.58)"
       fill="#6b5b8f"
       fill-rule="evenodd"
       stroke="#001029"
       stroke-width="0.96"
       stroke-linecap="square"
       stroke-linejoin="bevel"
       d="M 24,0.48 C 17.9459,7.9115 8.8702226,8.6730081 2.76,15.24 0.73646408,17.414805 0.746708,20.2 0,22.68 1.54233,20.2928 3.01375,17.5156 4.86,16.8 c -1.08391,2.44 -0.3,8.4 -0.3,8.4 0,0 0.9802,-6.04 2.1,-8.16 C 10.5485,8.18979 21.4906,8.91372 26.28,0 Z"
       style="stroke-linejoin:round" />
    <path
       id="shape25"
       transform="matrix(1.1724011,0.0753861,-0.0753861,1.1724011,230.05414,89.033484)"
       fill="#001029"
       fill-rule="evenodd"
       stroke-opacity="0"
       stroke="#000000"
       stroke-width="0"
       stroke-linecap="square"
       stroke-linejoin="bevel"
       d="M 0,10.65 35.25,0 71.52,10.89 53.28,17.61 52.665,25.665 C 46.7945,26.5564 40.9881,27.5256 34.8,29.37 30.1465,27.8996 25.6027,25.8835 18.72,25.05 l -1.56,-7.44 z" />
    <path
       id="shape26"
       transform="matrix(1.1724011,0.0753861,-0.0753861,1.1724011,248.83419,110.86644)"
       fill="none"
       stroke-opacity="0"
       stroke="#000000"
       stroke-width="0"
       stroke-linecap="square"
       stroke-linejoin="bevel"
       d="M 0,0.18 C 8.17485,3.29962 11.0397,4.34925 18.2245,6.11887 25.7097,3.52425 20.8648,5.20462 35.91,0" />
    <path
       id="shape27"
       transform="matrix(1.1724011,0.0753861,-0.0753861,1.1724011,252.37624,113.17793)"
       fill="#27989a"
       fill-rule="evenodd"
       stroke-opacity="0"
       stroke="#000000"
       stroke-width="0"
       stroke-linecap="square"
       stroke-linejoin="bevel"
       d="M 0,0 0.84,3.48 C 4.63004,3.71005 9.41502,5.15613 14.64,7.14 19.8598,5.36079 24.9791,4.08433 29.88,3.9 L 29.58,0.48 C 24.64,1.92 19.7,3.36 14.76,4.8 9.84,3.2 4.92,1.6 0,0 Z" />
    <path
       id="shape28"
       transform="matrix(1.1724011,0.0753861,-0.0753861,1.1724011,251.72389,107.94433)"
       fill="#64cecf"
       fill-rule="evenodd"
       stroke-opacity="0"
       stroke="#000000"
       stroke-width="0"
       stroke-linecap="square"
       stroke-linejoin="bevel"
       d="M 0,0 3.24,2.87206 15.78,6.51 27.06,3.255 31.14,0.0638235 15.66,4.36941 Z" />
  </g>
</svg>
