<?xml version="1.0" standalone="no"?>
<!DOCTYPE svg PUBLIC "-//W3C//DTD SVG 20010904//EN" "http://www.w3.org/TR/2001/REC-SVG-20010904/DTD/svg10.dtd">
<!-- Created using Krita: https://krita.org -->
<svg xmlns="http://www.w3.org/2000/svg" 
    xmlns:xlink="http://www.w3.org/1999/xlink"
    xmlns:krita="http://krita.org/namespaces/svg/krita"
    xmlns:sodipodi="http://sodipodi.sourceforge.net/DTD/sodipodi-0.dtd"
    width="307.2pt"
    height="172.8pt"
    viewBox="0 0 307.2 172.8">
<defs/>
<g id="g1" transform="matrix(0.798781472098492 0 0 0.758338623335415 9.25234430707707 5.75433939166648)" fill="none">
  <path id="shape0" transform="translate(56.470578, 3.6933392)" fill="#ffffff" fill-rule="evenodd" stroke="#001029" stroke-width="2.88" stroke-linecap="square" stroke-linejoin="bevel" d="M2.35942 142.947L2.40743 142.925L2.4572 142.886L2.50888 142.831L2.56261 142.759L2.61856 142.671L2.67686 142.568L2.73768 142.45L2.80117 142.317L2.86747 142.171L2.93674 142.011L3.00913 141.838L3.0848 141.652L3.16389 141.454L3.24656 141.245L3.33295 141.024L3.42322 140.793L3.51753 140.552L3.61602 140.3L3.71884 140.04L3.82616 139.771L3.93811 139.493L4.05485 139.208L4.17653 138.915L4.30331 138.615L4.43533 138.309L4.57276 137.997L4.71573 137.68L4.8644 137.357L5.01893 137.03L5.17946 136.699L5.34615 136.364L5.51915 136.026L5.6986 135.685L5.88467 135.342L6.07751 134.998L6.27726 134.652L6.48407 134.305L6.69811 133.958L6.91952 133.612L7.14845 133.266L7.38506 132.921L7.62949 132.577L7.8819 132.236L8.14244 131.897L8.41127 131.561L8.68853 131.229L8.97437 130.901L9.26895 130.577L9.57242 130.257L9.88493 129.944L10.2066 129.636L10.5377 129.334L10.8782 129.039L11.2284 128.752L11.5884 128.472L11.9584 128.2L12.3384 127.937L12.7287 127.683L13.1294 127.439L13.5407 127.204L13.9627 126.981L14.3955 126.768L14.8394 126.567L15.4641 126.335L16.0706 126.097L16.6591 125.854L17.23 125.606L17.7835 125.352L18.3199 125.094L18.8394 124.831L19.3425 124.563L19.8293 124.291L20.3001 124.015L20.7553 123.735L21.1951 123.451L21.6199 123.164L22.0298 122.874L22.4251 122.58L22.8063 122.283L23.1735 121.984L23.5271 121.682L23.8672 121.378L24.1943 121.071L24.5086 120.763L24.8104 120.452L25.0999 120.141L25.3775 119.827L25.6435 119.513L25.898 119.198L26.1415 118.882L26.3743 118.565L26.5964 118.248L26.8084 117.93L27.0105 117.613L27.2028 117.296L27.3859 116.979L27.5598 116.662L27.725 116.347L27.8816 116.032L28.0301 115.719L28.1706 115.407L28.3035 115.096L28.429 114.787L28.5474 114.48L28.6591 114.175L28.7643 113.873L28.8632 113.573L28.9562 113.276L29.0436 112.982L29.1257 112.69L29.2026 112.402L29.2748 112.118L29.3425 111.837L29.406 111.56L29.4656 111.288L29.5216 111.019L29.5742 110.755L29.6237 110.496L29.6705 110.241L29.7148 109.992L29.7569 109.747L29.7971 109.508L29.8356 109.275L29.8728 109.048L29.909 108.827L29.9444 108.612L30.415 108.488L30.8949 108.347L31.3829 108.19L31.8779 108.017L32.3789 107.826L32.8848 107.62L33.3944 107.397L33.9066 107.158L34.4204 106.903L34.9345 106.633L35.448 106.346L35.9598 106.044L36.4686 105.726L36.9735 105.393L37.4733 105.045L37.9668 104.681L38.4531 104.302L38.931 103.909L39.3994 103.5L39.8572 103.077L40.3033 102.639L40.7366 102.187L41.156 101.72L41.5603 101.239L41.9485 100.744L42.3196 100.234L42.6723 99.7112L43.0055 99.1742L43.3182 98.6235L43.6093 98.0593L43.8777 97.4815L44.1222 96.8904L44.3418 96.286L44.5353 95.6685L44.7017 95.038L44.8399 94.3946L44.9486 93.7385L45.027 93.0696L45.0737 92.3882L45.0878 91.6944L45.0681 90.9882L45.0136 90.2698L44.9231 89.5393L44.7955 88.7969L44.6297 88.0426L44.4246 87.2765L44.1792 86.4988L43.8922 85.7096L43.5627 84.9089L43.1895 84.097L42.7715 83.2739L42.3075 82.4397L41.7966 81.5946L41.2376 80.7387L40.6293 79.872L39.9708 78.9947L39.2608 78.107L38.4983 77.2089L37.6822 76.3005L36.8113 75.3819L35.8846 74.4534L34.901 73.5149L33.8594 72.5666L32.8851 71.7916L31.9859 70.9682L31.1605 70.0989L30.4076 69.1862L29.7259 68.2326L29.114 67.2407L28.5707 66.213L28.0946 65.152L27.6844 64.0601L27.3388 62.9401L27.0564 61.7943L26.8361 60.6253L26.6763 59.4356L26.5759 58.2277L26.5335 57.0042L26.5478 55.7675L26.6175 54.5203L26.7412 53.265L26.9177 52.0041L27.1456 50.7402L27.4236 49.4758L27.7504 48.2134L28.1247 46.9555L28.5451 45.7046L29.0104 44.4634L29.5193 43.2342L30.0703 42.0196L30.6622 40.8222L31.2938 39.6445L31.9636 38.4889L32.6703 37.3581L33.4127 36.2544L34.1894 35.1806L34.9991 34.1389L35.8404 33.1321L36.7122 32.1626L37.613 31.233L38.5415 30.3457L39.4965 29.5032L40.4765 28.7082L41.4804 27.9631L42.5067 27.2705L43.5542 26.6328L44.6215 26.0526L45.7073 25.5324L46.8104 25.0748L47.9293 24.6822L49.0628 24.3572L50.2096 24.1023L51.3683 23.92L52.5376 23.8129L53.7163 23.7834L54.9029 23.8342L56.0962 23.9676L57.2949 24.1863L58.4976 24.4927L59.7031 24.8894L60.91 25.3789L62.1169 25.9637L69.1694 31.895L89.6866 15.1167L84.098 10.5385L81.4626 8.85233L78.8325 7.32383L76.2104 5.94979L73.599 4.727L71.001 3.65227L68.419 2.72239L65.8556 1.93416L63.3135 1.28437L60.7955 0.769822L58.3041 0.387314L55.842 0.133643L53.4118 0.00560605L51.0163 0L48.6581 0.113622L46.3398 0.34327L44.0641 0.685741L41.8337 1.13783L39.6512 1.69634L37.5194 2.35807L35.4407 3.1198L33.418 3.97835L31.4538 4.9305L29.5509 5.97305L27.7118 7.10281L25.9394 8.31657L24.2361 9.61112L22.6047 10.9833L21.0478 12.4298L19.5681 13.9475L18.1683 15.5332L16.8509 17.1837L15.6188 18.8958L14.4745 20.6662L13.4206 22.4918L12.46 24.3694L11.5951 26.2958L10.8287 28.2677L10.1635 30.282L9.602 32.3355L9.147 34.4249L8.80111 36.547L8.567 38.6987L8.44732 40.8768L8.44474 43.078L8.56192 45.2992L8.80151 47.5371L9.16618 49.7885L9.65858 52.0503L10.2814 54.3192L11.0372 56.592L11.9288 58.8656L12.9588 61.1366L14.1298 63.4021L15.4445 65.6586L16.9055 67.903L18.5156 70.1322L20.2774 72.3429L22.1935 74.5318L24.2665 76.6959L26.4993 78.8319L28.8944 80.9366L29.3855 81.4865L29.8537 82.0237L30.2993 82.5484L30.7227 83.0607L31.1243 83.5609L31.5045 84.0491L31.8637 84.5257L32.2022 84.9907L32.5204 85.4443L32.8186 85.8869L33.0974 86.3185L33.357 86.7394L33.5979 87.1497L33.8203 87.5497L34.0248 87.9396L34.2116 88.3196L34.3812 88.6898L34.5339 89.0505L34.6701 89.4019L34.7903 89.7441L34.8946 90.0775L34.9837 90.4021L35.0578 90.7181L35.1173 91.0259L35.1625 91.3255L35.194 91.6172L35.212 91.9011L35.2169 92.1775L35.2092 92.4466L35.1891 92.7086L35.1572 92.9637L35.1136 93.212L35.0589 93.4538L34.9934 93.6893L34.9176 93.9186L34.8316 94.142L34.7361 94.3598L34.6312 94.5719L34.5175 94.7788L34.3953 94.9805L34.2649 95.1773L34.1268 95.3694L33.9813 95.557L33.8288 95.7402L33.6697 95.9193L33.5044 96.0945L33.3333 96.266L33.1567 96.4339L32.9749 96.5985L32.7885 96.76L32.5978 96.9186L32.4031 97.0745L32.2048 97.2278L32.0033 97.3788L31.7991 97.5277L31.5924 97.6747L31.3836 97.82L31.1732 97.9637L30.9615 98.1061L30.7489 98.2474L30.5357 98.3878L30.3224 98.5275L30.1094 98.6666L29.3673 96.8112L28.5905 95.0946L27.7817 93.5131L26.9435 92.0632L26.0788 90.741L25.1901 89.5431L24.2802 88.4658L23.3517 87.5054L22.4075 86.6583L21.4501 85.9209L20.4823 85.2895L19.5068 84.7604L18.5263 84.3301L17.5435 83.9949L16.561 83.7512L15.5817 83.5952L14.6081 83.5235L13.643 83.5323L12.6891 83.6179L11.7491 83.7769L10.8257 84.0054L9.92156 84.3L9.03942 84.6569L8.18197 85.0724L7.35191 85.5431L6.55195 86.0652L5.78478 86.635L5.0531 87.249L4.35961 87.9035L3.70703 88.5948L3.09803 89.3194L2.53534 90.0735L2.02164 90.8536L1.55963 91.656L1.15203 92.4771L0.801523 93.3132L0.510817 94.1607L0.282611 95.0159L0.119606 95.8752L0.0245019 96.735L0 97.5916L0.0488008 98.4414L0.173605 99.2807L0.377113 100.106L0.662026 100.913L1.03104 101.7L1.48687 102.461L2.0322 103.193L2.66974 103.893L3.40218 104.558L4.23224 105.182L5.1626 105.764L6.19597 106.298L7.33505 106.782L8.58255 107.212L9.94115 107.585L11.4136 107.895L13.0025 108.141L14.7106 108.318L16.5407 108.423L18.4954 108.452L20.5774 108.401L22.7894 108.267L22.8453 108.56L22.8886 108.852L22.9197 109.142L22.9386 109.431L22.9455 109.717L22.9407 110.002L22.9242 110.285L22.8964 110.566L22.8573 110.845L22.8072 111.122L22.7461 111.397L22.6744 111.671L22.5922 111.942L22.4996 112.212L22.3969 112.479L22.2843 112.745L22.1618 113.008L22.0297 113.27L21.8882 113.53L21.7375 113.787L21.5777 114.043L21.409 114.297L21.2316 114.548L21.0457 114.798L20.8514 115.045L20.649 115.29L20.4386 115.534L20.2205 115.775L19.9947 116.014L19.7614 116.25L19.5209 116.485L19.2734 116.718L19.0189 116.948L18.7578 117.176L18.4901 117.402L18.2161 117.626L17.9359 117.848L17.6497 118.067L17.3577 118.284L17.0601 118.499L16.757 118.711L16.4487 118.921L16.1353 119.129L15.817 119.335L15.494 119.538L15.1664 119.739L14.8345 119.938L14.4985 120.134L14.1584 120.328L13.8145 120.52L13.467 120.709L13.116 120.895L12.7618 121.08L12.4044 121.262L12.0442 121.441L11.6813 121.618L11.3158 121.792L10.9479 121.964L10.5778 122.134L10.2058 122.301L9.8319 122.465L9.45639 122.627L9.07942 122.787L8.59939 123.097L8.13856 123.418L7.69658 123.749L7.2731 124.091L6.86777 124.442L6.48023 124.802L6.11014 125.17L5.75714 125.546L5.42087 125.929L5.10099 126.32L4.79715 126.716L4.50899 127.118L4.23616 127.526L3.9783 127.938L3.73508 128.354L3.50612 128.774L3.29109 129.197L3.08963 129.622L2.90139 130.05L2.72601 130.479L2.56315 130.909L2.41244 131.34L2.27355 131.771L2.14611 132.201L2.02978 132.63L1.9242 133.057L1.82902 133.483L1.7439 133.905L1.66846 134.325L1.60238 134.741L1.54528 135.152L1.49683 135.559L1.45666 135.96L1.42443 136.356L1.39979 136.746L1.38237 137.128L1.37184 137.503L1.36784 137.87L1.37001 138.229L1.378 138.579L1.39147 138.919L1.41005 139.25L1.43341 139.57L1.46117 139.878L1.49301 140.175L1.52855 140.461L1.56745 140.733L1.60936 140.992L1.65392 141.238L1.70079 141.469L1.74961 141.686L1.80003 141.888L1.85169 142.073L1.90425 142.243L1.95735 142.395L2.01064 142.53L2.06376 142.648L2.11638 142.746L2.16813 142.826L2.21866 142.887L2.26762 142.928C2.26886 143.902 2.24954 144.113 2.20966 143.563C2.18963 143.286 2.23955 143.081 2.35942 142.947" sodipodi:nodetypes="ccccccccccccccccccccccccccccccccccccccccccccccccccccccccccccccccccccccccccccccccccccccccccccccccccccccccccccccccccccccccccccccccccccccccccccccccccccccccccccccccccccccccccccccccccccccccccccccccccccccccccccccccccccccccccccccccccccccccccccccccccccccccccccccccccccccccccccccccccccccccccccccccccccccccccccccccccccccccccccccccccccccccccccccccccccccccccccccccccccccccccccccccccccccccccccccccccccccccccccccccccccccccccccccccccccccccccccccccccccccccccccccccccccccccccccccccccccccccccccccccccccccccccccccccccccccccccccccccccccccccccccccccccccccccccccccccccccccccccccccccccccc"/>
  <path id="shape9" transform="translate(72.0360118619592, 14.3872965064974)" fill="#82e5ea" fill-rule="evenodd" stroke-opacity="0" stroke="#000000" stroke-width="0" stroke-linecap="square" stroke-linejoin="bevel" d="M49.1041 1.9027C70.815 11.348 75.2775 16.0116 48.6016 12.0427C13.7216 -2.56339 -2.65365 39.0436 10.3136 58.7275C12.3484 63.6498 40.3231 80.4567 15.6021 94.5564L15.8464 91.524C27.2159 83.43 22.6236 75.5894 14.0041 67.8127C-15.0724 43.9327 3.29779 -10.8655 49.1041 1.9027Z" sodipodi:nodetypes="ccccccc"/>
  <path id="shape11" transform="translate(59.2033029888067, 90.204515407717)" fill="#82e5ea" fill-rule="evenodd" stroke-opacity="0" stroke="#000000" stroke-width="0" stroke-linecap="square" stroke-linejoin="bevel" d="M18.2867 18.2755C19.6038 18.1489 21.1608 18.0222 22.8379 17.8956C22.1537 34.6852 8.30965 37.6195 6.71962 38.7628C-1.17021 44.8481 0.242589 50.9472 0.0158621 51.4687C-0.243071 53.3155 2.72539 43.0012 4.73303 42.6202C6.1391 40.7976 4.193 41.2713 7.76423 39.6648C14.7701 36.6646 26.1206 30.4507 24.3917 17.6755C18.7401 -24.0859 -23.3251 21.5196 18.4667 19.5505Z" sodipodi:nodetypes="ccccccccc"/>
  <path id="shape14" transform="translate(65.692177, 4.8689645)" fill="#337d98" fill-rule="evenodd" stroke-opacity="0" stroke="#000000" stroke-width="0" stroke-linecap="square" stroke-linejoin="bevel" d="M53.5878 11.9226L52.5658 11.6808L50.5345 11.2763L48.5444 10.9556L46.5957 10.7169L44.689 10.5584L42.8245 10.478L41.0027 10.4739L39.2238 10.5443L37.4883 10.6872L35.7966 10.9007L34.149 11.1831L32.5458 11.5323L30.9875 11.9465L29.4745 12.4238L28.0071 12.9623L26.5856 13.5602L25.2105 14.2155L23.8821 14.9263L22.6009 15.6909L21.367 16.5072L20.1811 17.3734L19.0433 18.2876L17.9541 19.2479L16.9139 20.2525L15.923 21.2994L14.9818 22.3867L14.0907 23.5127L13.2501 24.6753L12.4602 25.8727L11.7216 27.103L11.0345 28.3644L10.3994 29.6548L9.81655 30.9726L9.2864 32.3157L8.8093 33.6822L8.38563 35.0704L8.01577 36.4782L7.70007 37.9038L7.43892 39.3454L7.23269 40.801L7.08174 42.2688L6.98646 43.7468L6.94721 45.2332L6.96437 46.7261L7.03831 48.2236L7.1694 49.7238L7.35801 51.2248L7.60452 52.7247L7.9093 54.2217L8.27272 55.7139L8.69515 57.1994L9.17697 58.6762L9.71855 60.1425L10.3203 61.5965L10.9825 63.0362L11.7056 64.4597L12.4899 65.8651L13.3359 67.2507L14.2438 68.6144L15.2141 69.9544L16.2472 71.2688L17.3433 72.5557L18.503 73.8133L19.2133 74.4399L19.8987 75.0604L20.5591 75.675L21.195 76.2835L21.8063 76.886L22.3934 77.4824L22.9565 78.0728L23.4956 78.6572L24.011 79.2355L24.503 79.8079L24.9716 80.3741L25.4171 80.9344L25.8396 81.4886L26.2394 82.0368L26.6167 82.5789L26.9716 83.115L27.3043 83.6451L27.615 84.1692L27.904 84.6872L28.1713 85.1992L28.4173 85.7052L28.642 86.2051L28.8457 86.699L29.0286 87.1868L29.1908 87.6687L29.3325 88.1445L29.454 88.6143L29.5554 89.078L29.6369 89.5357L29.6988 89.9874L29.7411 90.433L29.7641 90.8727L29.768 91.3063L29.7529 91.7338L29.7191 92.1553L29.6668 92.5708L29.5961 92.9803L29.5072 93.3838L29.4004 93.7812L29.2758 94.1726L29.1335 94.5579L28.9739 94.9373L28.797 95.3106L28.6031 95.6778L28.3924 96.0391L28.1651 96.3943L27.9212 96.7435L27.6611 97.0866L27.385 97.4238L27.0929 97.7549L26.7852 98.0799L26.462 98.399L26.1234 98.712L25.7698 99.019L25.4012 99.32L25.0178 99.6149L24.6199 99.9038L24.2077 100.187L23.7813 100.464L23.3409 100.734L22.8867 100.999L22.419 101.258L21.9378 101.511L21.9707 100.889L22.0007 100.457L22.026 100.179L22.0446 100.017L22.0548 99.9344L22.0547 99.8945L22.0424 99.8603L22.0163 99.795L21.9743 99.6618L21.9148 99.4238L21.8358 99.0442L21.7355 98.4861L22.2992 98.0691L22.8239 97.651L23.3105 97.232L23.7599 96.8122L24.173 96.3917L24.5507 95.9707L24.8938 95.5492L25.2032 95.1275L25.4799 94.7057L25.7246 94.2838L25.9383 93.8621L26.1218 93.4407L26.2761 93.0197L26.402 92.5992L26.5004 92.1795L26.5722 91.7605L26.6182 91.3426L26.6394 90.9257L26.6366 90.5101L26.6108 90.0958L26.5627 89.6831L26.4933 89.272L26.4035 88.8627L26.2941 88.4554L26.166 88.0501L26.0202 87.6469L25.8574 87.2462L25.6786 86.8479L25.4846 86.4522L25.2764 86.0593L25.0548 85.6692L24.8207 85.2822L24.575 84.8983L24.3186 84.5177L24.0522 84.1406L23.777 83.767L23.4936 83.3971L23.203 83.0311L22.9062 82.6691L22.6038 82.3111L22.2969 81.9575L21.9864 81.6082L21.673 81.2635L21.3577 80.9234L21.0414 80.5881L20.725 80.2578L20.4093 79.9325L20.0952 79.6125L19.7836 79.2978L19.4753 78.9886L19.1714 78.685L18.8726 78.3872L18.5798 78.0953L18.2939 77.8095L18.0159 77.5298L17.7465 77.2564L17.4867 76.9895L17.2373 76.7291L16.9992 76.4755L16.7733 76.2288L16.5605 75.989L16.3617 75.7564L16.1778 75.5311L14.1658 73.4082L12.2985 71.2702L10.5736 69.1194L8.98857 66.9585L7.54103 64.7898L6.22856 62.6161L5.04874 60.4397L3.99914 58.2631L3.07734 56.089L2.28093 53.9198L1.60748 51.7581L1.05458 49.6063L0.619801 47.4669L0.300725 45.3426L0.0949314 43.2358L0 41.149L0.0135105 39.0847L0.133042 37.0455L0.356176 35.0339L0.680489 33.0524L1.10356 31.1035L1.62298 29.1898L2.23631 27.3137L2.94114 25.4777L3.73506 23.6845L4.61563 21.9364L5.58044 20.2361L6.62706 18.5861L7.75309 16.9888L8.95609 15.4467L10.2336 13.9625L11.5833 12.5386L13.0027 11.1775L14.4894 9.88176L16.041 8.65389L17.6551 7.49641L19.3291 6.41184L21.0608 5.40269L22.8477 4.47147L24.6873 3.62072L26.5773 2.85294L28.5153 2.17065L30.4987 1.57638L32.5253 1.07264L34.5925 0.661944L36.6979 0.346814L38.8392 0.129769L41.0139 0.0133245L43.2196 0L45.4539 0.092313L47.7143 0.292781L49.9984 0.603923L52.3039 1.02826L54.6282 1.5683L56.969 2.22657L59.3238 3.00558L61.6903 3.90786L64.066 4.93592L66.4485 6.09228L68.8353 7.37945L71.2241 8.79996C73.4087 10.0937 75.5325 11.3873 77.0089 12.681L58.3578 14.031L53.5878 11.9226" sodipodi:nodetypes="cccccccccccccccccccccccccccccccccccccccccccccccccccccccccccccccccccccccccccccccccccccccccccccccccccccccccccccccccccccccccccccccccccccccccccccccccccccccccccccccccccccccccccccccccccccccccccccccccccccccccccccccccccccccccccccccccccccccccccccccccccccccccccccccccccccccccc"/>
  <path id="shape141" transform="translate(59.0280089810017, 92.7492102552547)" fill="#337d98" fill-rule="evenodd" stroke-opacity="0" stroke="#000000" stroke-width="0" stroke-linecap="square" stroke-linejoin="bevel" d="M18.387 13.5557L18.6495 15.6407C-17.4696 18.6435 14.7112 -19.5386 23.052 13.6307C23.8406 24.5306 22.2488 29.1292 11.1786 34.7427C7.60373 36.3806 1.57981 38.4349 0.0391652 49.553C-0.198874 44.7607 0.445146 38.5594 7.76304 34.3855C20.7997 27.9064 21.3751 24.9878 20.8397 15.9381C16.8788 13.3764 14.0684 8.19025 18.387 13.5557Z" sodipodi:nodetypes="cccccccc"/>
  <path id="shape20" transform="translate(65.1596237479372, 96.6193159854992)" fill="#ffffff" fill-rule="evenodd" stroke="#001029" stroke-width="2.88" stroke-linecap="square" stroke-linejoin="miter" stroke-miterlimit="2" d="M12.136 8.36998C5.44532 8.94235 -2.54942 7.15404 0.780371 2.56069C5.04551 -3.32295 10.5594 1.95297 12.3469 8.11742" sodipodi:nodetypes="ccc"/>
  <path id="shape21" transform="translate(80.64, 92.13)" fill="none" stroke="#001029" stroke-width="2.88" stroke-linecap="square" stroke-linejoin="miter" stroke-miterlimit="2" d="M0 0C2.53182 2.58106 4.42183 6.25734 5.26676 10.0528C5.99362 12.8263 6.44875 16.6713 5.74676 20.4275" sodipodi:nodetypes="ccc"/>
  <path id="shape03" transform="translate(77.53162508, 105.112572005531)" fill="none" stroke="#001029" stroke-width="2.4" stroke-linecap="square" stroke-linejoin="miter" stroke-miterlimit="2" d="M0 0.0723129C0.572153 -0.733171 1.78756 5.42045 1.27256 7.1058" sodipodi:nodetypes="cc"/>
  <path id="shape29" transform="translate(60.772496, 130.66499)" fill="none" stroke="#ffffff" stroke-width="0.48" stroke-linecap="square" stroke-linejoin="miter" stroke-miterlimit="2" d="M5.22 0C2.24691 1.79935 0.340742 5.83989 0 7.3125" sodipodi:nodetypes="cc"/>
 </g><g id="g2" transform="matrix(0.995034148784815 0 0 0.875333143836926 -29.096995082045 1.07034969097177)" fill="none">
  <path id="shape2" transform="translate(190.195009, 2.88986688309448)" fill="#ffffff" fill-rule="evenodd" stroke="#001029" stroke-width="2.88" stroke-linecap="square" stroke-linejoin="bevel" d="M13.1287 28.5296C18.5041 24.877 19.9921 23.7597 29.9841 21.5446C46.8911 22.7789 54.6535 42.3648 48.0446 51.0237L48.245 71.1501C95.0125 45.7095 70.9337 -24.666 9.42057 8.89993C6.84676 10.3044 2.70243 12.8485 0 14.6278" sodipodi:nodetypes="cccccc"/>
  <path id="shape8" transform="translate(194.5921768, 6.23081238682099)" fill="#82e5ea" fill-rule="evenodd" stroke-opacity="0" stroke="#000000" stroke-width="0" stroke-linecap="square" stroke-linejoin="bevel" d="M0 11.5514L9.07781 10.2992C50.6134 -2.20654 58.7175 34.4806 44.4478 56.8892L44.4178 66.0092C68.3367 44.4187 63.039 -27.8445 0 11.5514Z" sodipodi:nodetypes="ccccc"/>
  <path id="shape10" transform="translate(187.58999, 4.06699260155766)" fill="#337d98" fill-rule="evenodd" stroke-opacity="0" stroke="#000000" stroke-width="0" stroke-linecap="square" stroke-linejoin="bevel" d="M49.23 69.553C73.3483 43.8599 73.427 -24.1617 0 17.143C65.2267 -32.7765 102.608 39.2158 49.23 69.553Z" sodipodi:nodetypes="ccc"/>
 </g>
</svg>
