<?xml version="1.0" standalone="no"?>
<!DOCTYPE svg PUBLIC "-//W3C//DTD SVG 20010904//EN" "http://www.w3.org/TR/2001/REC-SVG-20010904/DTD/svg10.dtd">
<!-- Created using Krita: https://krita.org -->
<svg xmlns="http://www.w3.org/2000/svg" 
    xmlns:xlink="http://www.w3.org/1999/xlink"
    xmlns:krita="http://krita.org/namespaces/svg/krita"
    xmlns:sodipodi="http://sodipodi.sourceforge.net/DTD/sodipodi-0.dtd"
    width="307.2pt"
    height="172.8pt"
    viewBox="0 0 307.2 172.8">
<defs/>
<g id="g3" transform="matrix(0.829018043259716 0 0 0.829018043259716 -1.90248251751618 8.56332647419411)" fill="none">
  <path id="shape1" transform="translate(114.981859656733, 79.559995)" fill="#ffffff" fill-rule="evenodd" stroke="#001029" stroke-width="2.88" stroke-linecap="square" stroke-linejoin="bevel" d="M6.09812 0C9.55808 0.344259 7.91804 5.42852 8.288 10.9328C10.9181 10.7085 19.4281 11.0243 23.7381 11.28C19.6971 20.3733 47.2974 18.8328 45.0981 11.64L71.1381 12.12C79.8266 47.6603 -26.0542 47.0084 6.09812 0Z" sodipodi:nodetypes="cccccc"/>
  <path id="shape7" transform="translate(120.594230124518, 92.159994)" fill="#82e5ea" fill-rule="evenodd" stroke-opacity="0" stroke="#000000" stroke-width="0" stroke-linecap="square" stroke-linejoin="bevel" d="M57.6208 0.795L49.6403 0.703622C49.8786 9.38069 6.91169 13.6432 5.69798 0.250625L0.620767 0C-7.3336 31.1703 63.8987 19.5857 57.6208 0.795Z" sodipodi:nodetypes="ccccc"/>
  <path id="shape15" transform="translate(115.812931302212, 82.049999)" fill="#337d98" fill-rule="evenodd" stroke-opacity="0" stroke="#000000" stroke-width="0" stroke-linecap="square" stroke-linejoin="bevel" d="M5.50707 0C-24.0949 40.4316 75.5906 44.2854 69.1671 11.04L62.1137 10.8483C64.0495 31.2023 1.53419 31.8714 5.86839 9.87464Z" sodipodi:nodetypes="ccccc"/>
 </g><g id="g4" transform="matrix(0.791296093723988 0 0 0.791296093723988 13.9064044445146 11.9979433451145)" fill="none">
  <path id="shape3" transform="translate(191.701420555223, 87.6562546357577)" fill="#ffffff" fill-rule="evenodd" stroke="#001029" stroke-width="2.88" stroke-linecap="square" stroke-linejoin="bevel" d="M83.2486 44.8537C82.5109 47.5688 78.2314 55.9825 75.0886 60.2137C67.7996 69.4281 54.0534 92.2031 90.991 96.2485C140.098 96.5426 130.341 34.6174 86.7586 10.6237C69.4139 -1.41274 62.1061 -2.76356 29.6986 4.26374L4.37857 3.42374C-13.7112 32.0581 28.8977 27.9405 47.6986 23.1637C56.477 20.3325 58.6573 18.3684 66.9586 24.3637L63.1486 25.3237C61.7258 28.0217 63.0541 24.5242 60.0586 29.5237C57.7826 31.8267 58.71 32.8746 46.95 40.8078C40.2927 43.9612 40.5632 50.866 44.0426 52.93C48.6178 55.644 52.8158 55.2142 57.9618 53.6609C65.1565 52.7859 71.9256 47.5507 72.1786 47.9137C74.3125 50.9754 58.2818 68.5793 52.9786 64.5937C55.0931 67.322 58.3073 67.3709 61.7657 66.0962C71.2881 62.5865 82.6619 49.0421 78.0286 53.7637C84.3124 46.3467 84.783 41.1429 83.317 43.6908" sodipodi:nodetypes="cccccccccccccccccc"/>
  <ellipse id="shape4" transform="translate(236.85, 134.94)" rx="1.08" ry="0.95999998" cx="1.08" cy="0.95999998" fill="#000f28" fill-rule="evenodd" stroke-opacity="0" stroke="#000000" stroke-width="0" stroke-linecap="square" stroke-linejoin="bevel"/>
  <path id="shape5" transform="translate(268.43998, 118.19999)" fill="#82e5ea" fill-rule="evenodd" stroke-opacity="0" stroke="#000000" stroke-width="0" stroke-linecap="square" stroke-linejoin="bevel" d="M6.645 34.365C-11.2551 57.8564 39.1251 66.277 38.37 37.17C37.8346 16.5326 30.1212 7.34775 22.08 0L24.42 21.51C20.0679 16.2934 17.3934 5.5075 14.7126 4.48541L0 7.56C16.3634 9.76904 18.5784 18.704 6.645 34.365Z" sodipodi:nodetypes="ccccccc"/>
  <path id="shape6" transform="translate(194.81915825519, 92.519997)" fill="#82e5ea" fill-rule="evenodd" stroke-opacity="0" stroke="#000000" stroke-width="0" stroke-linecap="square" stroke-linejoin="bevel" d="M12.6608 0.36L2.07083 0C-8.99802 22.6091 27.3633 15.5763 38.9408 11.88L59.3708 3.33C46.0829 0.758292 0.762299 14.2253 12.6608 0.36Z" sodipodi:nodetypes="ccccc"/>
  <path id="shape01" transform="translate(276.06, 122.85)" fill="#337d98" fill-rule="evenodd" stroke-opacity="0" stroke="#000000" stroke-width="0" stroke-linecap="square" stroke-linejoin="bevel" d="M0 1.68L13.26 0C18.624 15.2396 19.1859 16.6935 12.03 26.43C12.4437 12.6649 13.9006 2.16638 0 1.68Z" sodipodi:nodetypes="cccc"/>
  <path id="shape12" transform="translate(289.79999, 137.64)" fill="#337d98" fill-rule="evenodd" stroke-opacity="0" stroke="#000000" stroke-width="0" stroke-linecap="square" stroke-linejoin="bevel" d="M0 25.2C10.3782 22.0965 8.44413 5.69083 2.88 0L0.72 9Z" sodipodi:nodetypes="cccc"/>
  <path id="shape13" transform="translate(192.93850518511, 92.4975)" fill="#337d98" fill-rule="evenodd" stroke-opacity="0" stroke="#000000" stroke-width="0" stroke-linecap="square" stroke-linejoin="bevel" d="M41.6015 11.4825C26.2805 14.3057 -5.35317 16.8001 3.96647 0C-13.9197 28.2169 33.4578 20.4473 51.2465 16.2075Z" sodipodi:nodetypes="cccc"/>
  <path id="shape16" transform="translate(259.333101598099, 145.92)" fill="#337d98" fill-rule="evenodd" stroke-opacity="0" stroke="#000000" stroke-width="0" stroke-linecap="square" stroke-linejoin="bevel" d="M10.4269 0C-5.03428 18.8893 -5.13886 34.0937 22.6894 36.5325C-3.73454 31.0242 -0.960231 16.6292 10.4269 0Z" sodipodi:nodetypes="ccc"/>
  <path id="shape17" transform="translate(251.02531701, 130.16999)" fill="#337d98" fill-rule="evenodd" stroke-opacity="0" stroke="#000000" stroke-width="0" stroke-linecap="square" stroke-linejoin="bevel" d="M22.9347 0C22.2849 10.4019 5.9896 21.6626 0 22.9257C4.74521 20.8121 16.0687 13.5051 22.9347 0Z" sodipodi:nodetypes="ccc"/>
  <path id="shape18" transform="translate(257.75998, 109.431767909233)" fill="none" stroke="#001029" stroke-width="2.88" stroke-linecap="square" stroke-linejoin="miter" stroke-miterlimit="2" d="M32.04 36.8032C41.2313 10.6489 24.2289 -6.73993 0 2.51322" sodipodi:nodetypes="cc"/>
  <path id="shape19" transform="translate(282.069635804094, 146.66999)" fill="#ffffff" fill-rule="evenodd" stroke="#001029" stroke-width="2.64" stroke-linecap="round" stroke-linejoin="round" d="M7.1165 0.959532C5.7684 8.12049 -4.39118 13.7411 2.21036 15.84C9.8812 18.2788 12.5946 7.38423 7.85035 0" sodipodi:nodetypes="ccc"/>
  <path id="shape22" transform="translate(254.61, 125.355)" fill="#000f28" fill-rule="evenodd" stroke-opacity="0" stroke="#000000" stroke-width="0" stroke-linecap="square" stroke-linejoin="bevel" d="M6.96 3.48L6.937 3.074L6.868 2.682L6.757 2.306L6.606 1.95L6.418 1.614L6.195 1.303L5.941 1.019L5.657 0.765L5.346 0.542L5.01 0.354L4.654 0.203L4.278 0.092L3.886 0.023L3.48 0L3.074 0.023L2.682 0.092L2.306 0.203L1.95 0.354L1.614 0.542L1.303 0.765L1.019 1.019L0.765 1.303L0.747 1.328L1.146 1.136L1.62 1.065L2.094 1.136L2.506 1.334L2.831 1.636L3.044 2.019L3.12 2.46L3.044 2.901L2.831 3.284L2.506 3.586L2.094 3.784L1.62 3.855L1.146 3.784L0.734 3.586L0.409 3.284L0.196 2.901L0.134 2.54L0.092 2.682L0.023 3.074L0 3.48L0.023 3.886L0.092 4.278L0.203 4.654L0.354 5.01L0.542 5.346L0.765 5.657L1.019 5.941L1.303 6.195L1.614 6.418L1.95 6.606L2.306 6.757L2.682 6.868L3.074 6.937L3.48 6.96L3.886 6.937L4.278 6.868L4.654 6.757L5.01 6.606L5.346 6.418L5.657 6.195L5.941 5.941L6.195 5.657L6.418 5.346L6.606 5.01L6.757 4.654L6.868 4.278L6.937 3.886L6.96 3.48" sodipodi:nodetypes="cccccccccccccccccccccccccccccccccccccccccccccccccccccccccccccccccccccccc"/>
  <path id="shape23" transform="translate(244.25067642, 137.45557066)" fill="#b2a1d7" fill-rule="evenodd" stroke="#001029" stroke-width="0.96" stroke-linecap="square" stroke-linejoin="bevel" d="M5.43 4.86C6.19147 7.16203 2.26814 12.5497 0 15.5989C4.05101 19.4624 15.1643 9.04911 18.48 0C14.1706 1.82302 9.89199 3.79995 5.43 4.86Z" sodipodi:nodetypes="cccc"/>
  <path id="shape24" transform="translate(229.26, 140.58)" fill="#6b5b8f" fill-rule="evenodd" stroke="#001029" stroke-width="0.96" stroke-linecap="square" stroke-linejoin="round" d="M24 0.48C17.9459 7.9115 8.87022 8.67301 2.76 15.24C0.736464 17.4148 0.746708 20.2 0 22.68C1.54233 20.2928 3.01375 17.5156 4.86 16.8C3.77609 19.24 4.56 25.2 4.56 25.2C4.56 25.2 5.5402 19.16 6.66 17.04C10.5485 8.18979 21.4906 8.91372 26.28 0Z" sodipodi:nodetypes="cccccccc"/>
  <path id="shape25" transform="matrix(1.1724011 0.0753861 -0.0753861 1.1724011 230.05414 89.033484)" fill="#001029" fill-rule="evenodd" stroke-opacity="0" stroke="#000000" stroke-width="0" stroke-linecap="square" stroke-linejoin="bevel" d="M0 10.65L35.25 0L71.52 10.89L53.28 17.61L52.665 25.665C46.7945 26.5564 40.9881 27.5256 34.8 29.37C30.1465 27.8996 25.6027 25.8835 18.72 25.05L17.16 17.61Z" sodipodi:nodetypes="ccccccccc"/>
  <path id="shape26" transform="matrix(1.1724011 0.0753861 -0.0753861 1.1724011 248.83419 110.86644)" fill="none" stroke-opacity="0" stroke="#000000" stroke-width="0" stroke-linecap="square" stroke-linejoin="bevel" d="M0 0.18C8.17485 3.29962 11.0397 4.34925 18.2245 6.11887C25.7097 3.52425 20.8648 5.20462 35.91 0" sodipodi:nodetypes="ccc"/>
  <path id="shape27" transform="matrix(1.1724011 0.0753861 -0.0753861 1.1724011 252.37624 113.17793)" fill="#27989a" fill-rule="evenodd" stroke-opacity="0" stroke="#000000" stroke-width="0" stroke-linecap="square" stroke-linejoin="bevel" d="M0 0L0.84 3.48C4.63004 3.71005 9.41502 5.15613 14.64 7.14C19.8598 5.36079 24.9791 4.08433 29.88 3.9L29.58 0.48C24.64 1.92 19.7 3.36 14.76 4.8C9.84 3.2 4.92 1.6 0 0Z" sodipodi:nodetypes="ccccccc"/>
  <path id="shape28" transform="matrix(1.1724011 0.0753861 -0.0753861 1.1724011 251.72389 107.94433)" fill="#64cecf" fill-rule="evenodd" stroke-opacity="0" stroke="#000000" stroke-width="0" stroke-linecap="square" stroke-linejoin="bevel" d="M0 0L3.24 2.87206L15.78 6.51L27.06 3.255L31.14 0.0638235L15.66 4.36941Z" sodipodi:nodetypes="ccccccc"/>
 </g>
</svg>
