<?xml version="1.0" standalone="no"?>
<!DOCTYPE svg PUBLIC "-//W3C//DTD SVG 20010904//EN" "http://www.w3.org/TR/2001/REC-SVG-20010904/DTD/svg10.dtd">
<!-- Created using Krita: https://krita.org -->
<svg xmlns="http://www.w3.org/2000/svg" 
    xmlns:xlink="http://www.w3.org/1999/xlink"
    xmlns:krita="http://krita.org/namespaces/svg/krita"
    xmlns:sodipodi="http://sodipodi.sourceforge.net/DTD/sodipodi-0.dtd"
    width="480pt"
    height="240pt"
    viewBox="0 0 480 240">
<defs>
  <linearGradient id="gradient0" gradientUnits="objectBoundingBox" x1="0" y1="0" x2="1" y2="1" spreadMethod="pad">
   <stop stop-color="#001335" offset="0.0869565217391304" stop-opacity="1"/>
   <stop stop-color="#0c0c0c" offset="0.881422924901186" stop-opacity="1"/>
  </linearGradient>
  <linearGradient id="gradient1" gradientUnits="objectBoundingBox" x1="0" y1="0" x2="1" y2="1" spreadMethod="pad">
   <stop stop-color="#ffffff" offset="0" stop-opacity="1"/>
   <stop stop-color="#6b6a7b" offset="1" stop-opacity="1"/>
  </linearGradient>
 </defs>
<path id="shape0" transform="translate(33.6447772860498, 19.9897501577114)" fill="#000f29" fill-rule="evenodd" stroke-opacity="0" stroke="#000000" stroke-width="0" stroke-linecap="square" stroke-linejoin="bevel" d="M184.965 33.5485C155.146 -32.5853 -27.4182 -7.68496 22.2242 169.059C-54.8512 242.68 88.7792 388.716 145.851 255.103C284.914 362.21 415.459 322.481 421.245 299.001C665.014 415.173 703.713 219.526 660.571 159.972L660.54 159.972L660.678 159.972C648.229 150.868 568.155 202.327 555.611 192.97C571.855 211.712 562.564 99.209 585.72 97.7927L601.565 96.2275C598.551 92.3846 604.286 -24.1899 503.129 39.3681C497.257 45.1773 453.776 -23.7526 391.863 48.9553C389.419 49.1537 352.522 15.891 310.646 52.8022C303.194 51.7242 300.545 52.3553 290.977 55.9095C284.962 49.9778 277.325 46.0997 261.215 49.6185C240.31 37.5305 220.728 23.0442 184.965 33.5485Z" sodipodi:nodetypes="cccccccccccccccc"/><path id="shape01" transform="translate(44.1831639830369, 198.44873191027)" fill="#337d98" fill-rule="evenodd" stroke-opacity="0" stroke="#000000" stroke-width="0" stroke-linecap="square" stroke-linejoin="bevel" d="M14.8838 0C16.5315 21.5626 16.0558 76.595 53.9092 81.6105C108.045 78.7388 105.083 59.359 113.238 42.9003L124.817 67.7405C122.144 75.4959 108.379 132.608 49.489 111.78C-15.6521 87.3796 -4.1545 8.0054 14.8838 0Z" sodipodi:nodetypes="cccccc"/><path id="shape1" transform="translate(54.4861158827144, 131.573205774573)" fill="#337d98" fill-rule="evenodd" stroke-opacity="0" stroke="#000000" stroke-width="0" stroke-linecap="square" stroke-linejoin="bevel" d="M1.99236 0L14.5891 14.6188C19.4038 46.6747 37.9469 85.3134 55.9133 102.174C59.9317 108.137 68.0817 122.822 54.8971 122.974C10.6623 100.373 -6.18045 19.5919 1.99236 0Z" sodipodi:nodetypes="ccccc"/><path id="shape2" transform="translate(93.682265357785, 33.9518367890544)" fill="#337d98" fill-rule="evenodd" stroke-opacity="0" stroke="#000000" stroke-width="0" stroke-linecap="square" stroke-linejoin="bevel" d="M0 24.2492C10.1729 8.11363 46.1791 1.35121 59.0669 0C81.6557 2.0591 103.324 84.1704 109.18 162.481C133.334 303.351 272.784 298.22 349.158 279.491C259.13 340.494 93.4182 255.447 72.7245 197.843C59.1749 178.708 52.2744 147.526 47.4229 102.941C42.9282 78.677 36.9943 59.2568 18.8365 42.8643C12.2792 36.1955 6.55722 30.918 0 24.2492Z" sodipodi:nodetypes="cccccccc"/><path id="shape3" transform="translate(223.550451988629, 62.6152975818785)" fill="#337d98" fill-rule="evenodd" stroke-opacity="0" stroke="#000000" stroke-width="0" stroke-linecap="square" stroke-linejoin="bevel" d="M0 3.57629C6.82128 1.43023 13.1665 -1.5017 22.7419 0.898928C47.6028 29.8353 44.8779 79.8358 56.579 136.239C71.2603 197.093 136.025 229.482 169.057 234.68C241.144 228.586 269.384 192.327 293 151.343C305.927 118.43 319.203 86.4854 327.872 33.616C340.436 58.4154 324.836 119.545 302.194 166.497C297.381 174.965 253.981 245.274 168.419 251.319C136.924 249.174 75.829 248.388 34.2239 176.632C10.1836 117.889 39.3427 75.3877 0 3.57629Z" sodipodi:nodetypes="cccccccccc"/><path id="shape4" transform="translate(287.879430773734, 81.4785419621502)" fill="#337d98" fill-rule="evenodd" stroke-opacity="0" stroke="#000000" stroke-width="0" stroke-linecap="square" stroke-linejoin="bevel" d="M155.21 6.15156C163.204 -1.09888 173.757 -1.49966 186.012 2.6548C210.293 26.1197 162.881 178.209 83.2192 164.187C18.4743 179.34 14.7703 115.403 8.62626 61.3179C-5.22816 39.7559 15.9225 42.7641 0 4.50559C1.28362 6.24982 3.88671 -1.14192 11.6001 10.555C28.9677 48.1193 39.374 86.1328 51.063 109.447C64.8154 131.367 91.7105 135.723 95.0469 134.86C105.923 132.593 135.249 111.815 163.758 66.6291C171.951 47.8401 180.311 28.8536 155.21 6.15156Z" sodipodi:nodetypes="cccccccccc"/><path id="shape5" transform="translate(455.115478391178, 196.19153541257)" fill="#337d98" fill-rule="evenodd" stroke-opacity="0" stroke="#000000" stroke-width="0" stroke-linecap="square" stroke-linejoin="bevel" d="M0 114.219C61.7855 83.4238 75.0707 56.9543 86.5689 23.4272C96.9352 34.0558 124.968 48.2503 134.63 14.8622L235.821 0C261.595 91.8676 187.361 205.96 0 114.219Z" sodipodi:nodetypes="ccccc"/><path id="shape6" transform="translate(548.731068415989, 54.1494699768975)" fill="#337d98" fill-rule="evenodd" stroke-opacity="0" stroke="#000000" stroke-width="0" stroke-linecap="square" stroke-linejoin="bevel" d="M46.0837 0C64.7133 5.56622 69.634 29.1374 70.8542 57.5689C60.8902 38.4477 52.0392 69.8169 45.4959 104.043C38.9321 151.867 31.5878 169.134 23.0957 167.534C-11.3893 132.734 4.9083 162.52 0 152.287C30.888 124.975 3.40665 3.84297 46.0837 0Z" sodipodi:nodetypes="cccccc"/><path id="shape7" transform="translate(418.536970219842, 90.1579638358872)" fill="#337d98" fill-rule="evenodd" d="M0 0Z" sodipodi:nodetypes="cc"/><path id="shape02" transform="translate(59.1439705159793, 198.829401867203)" fill="#82e5ea" fill-rule="evenodd" stroke-opacity="0" stroke="#000000" stroke-width="0" stroke-linecap="square" stroke-linejoin="bevel" d="M69.5984 7.86116L84.2142 17.5019L97.6958 42.9315C84.1538 90.6789 51.6336 87.6243 29.9408 79.009C8.75125 70.5936 -1.35076 42.0847 0.144777 0C17.486 110.198 87.1414 50.1603 69.5984 7.86116Z" sodipodi:nodetypes="cccscc"/><path id="shape11" transform="translate(69.102213261108, 146.223923193248)" fill="#82e5ea" fill-rule="evenodd" stroke-opacity="0" stroke="#000000" stroke-width="0" stroke-linecap="square" stroke-linejoin="bevel" d="M0 0L32.782 34.6921C38.743 50.8543 42.7287 66.7045 43.4179 73.7026C45.7938 83.6076 45.5781 97.01 42.1165 89.2365C20.6242 64.9973 4.6129 42.4237 0 0Z" sodipodi:nodetypes="ccccc"/><path id="shape21" transform="translate(124.554681444448, 34.0732371124251)" fill="#82e5ea" fill-rule="evenodd" stroke-opacity="0" stroke="#000000" stroke-width="0" stroke-linecap="square" stroke-linejoin="bevel" d="M0 5.50406C36.8113 -7.16123 71.5211 4.63538 67.771 14.7886C77.1679 29.4335 62.9722 16.3768 74.4161 45.5964C102.271 96.9261 90.3206 147.525 119.368 212.447C147.65 256.414 224.511 306.252 318.846 278.393C298.006 299.434 191.951 309.831 136.141 264.331C70.36 224.517 57.6259 138.423 55.3391 111.306C52.8144 23.018 9.0151 9.56989 0 5.50406Z" sodipodi:nodetypes="cccccccc"/><path id="shape31" transform="translate(245.711754596327, 63.1057000021638)" fill="#82e5ea" fill-rule="evenodd" stroke-opacity="0" stroke="#000000" stroke-width="0" stroke-linecap="square" stroke-linejoin="bevel" d="M0 0C34.3502 36.5026 19.0854 143.395 53.479 180.982C181.429 320.811 306.332 155.852 306.208 35.076C298.284 17.8021 287.54 7.23619 273.715 0.939584C300.219 116.596 201.342 216.501 153.799 215.291C126.402 215.155 89.91 182.369 73.7601 154.775C52.9302 106.549 60.3788 39.4087 39.0559 19.6148C30.7983 11.8583 15.796 5.73194 0 0Z" sodipodi:nodetypes="cscccccc"/><path id="shape41" transform="translate(318.852721494739, 72.9038706319511)" fill="#82e5ea" fill-rule="evenodd" stroke-opacity="0" stroke="#000000" stroke-width="0" stroke-linecap="square" stroke-linejoin="bevel" d="M43.2793 4.14633C62.1005 -7.80854 98.4751 9.09054 103.076 17.0963C132.714 21.7407 106.845 139.784 55.5677 135.245C34.0134 134.066 17.373 109.169 0 54.6481C3.93442 65.2611 23.0627 86.7079 20.9013 91.3111C22.096 111.218 39.5608 131.641 63.2405 124.127C76.9364 123.057 82.9056 120.616 90.6131 108.012C95.6891 95.7131 91.4416 83.0182 90.2496 79.586C89.0577 76.1537 95.4451 56.6869 94.4418 49.3439C85.0369 19.0046 60.6508 12.6228 43.2793 4.14633Z" sodipodi:nodetypes="ccccccczcc"/><path id="shape51" transform="translate(558.778417465261, 54.0213831447134)" fill="#82e5ea" fill-rule="evenodd" stroke-opacity="0" stroke="#000000" stroke-width="0" stroke-linecap="square" stroke-linejoin="bevel" d="M57.0701 31.483C58.4944 18.5184 47.4341 3.25733 33.9818 0C-12.0841 41.3256 19.5213 109.997 0 164.051C3.4009 168.214 8.71663 168.733 13.1623 167.742C24.3126 115.921 21.6603 7.17197 57.0701 31.483Z" sodipodi:nodetypes="ccccc"/><path id="shape61" transform="translate(346.05334758483, 45.829050718804)" fill="#82e5ea" fill-rule="evenodd" stroke-opacity="0" stroke="#000000" stroke-width="0" stroke-linecap="square" stroke-linejoin="bevel" d="M89.1027 26.9365C125.026 -5.52542 136.57 -2.76422 155.153 5.1313C265.481 67.7582 155.871 97.1188 122.365 153.835C114.189 179.068 38.3122 239.405 0 181.679C5.63387 202.317 78.7921 226.65 122.803 116.428C145.813 44.7698 128.582 28.6445 96.929 40.602C93.6428 37.929 91.0341 33.3739 89.1027 26.9365Z" sodipodi:nodetypes="ccccccc"/><path id="shape71" transform="translate(495.511804737913, 183.853289631119)" fill="#82e5ea" fill-rule="evenodd" stroke-opacity="0" stroke="#000000" stroke-width="0" stroke-linecap="square" stroke-linejoin="bevel" d="M0 102.154C54.1318 142.096 157.165 139.259 194.402 79.6933C209.455 42.4867 198.643 17.136 186.013 0L148.993 11.0868C137.235 65.175 82.1623 75.5683 40.4743 52.254C27.2058 78.2893 10.5958 94.2144 0 102.154Z" sodipodi:nodetypes="cccccc"/><path id="shape12" transform="translate(60.1761647047636, 177.590875395774)" fill="#fffffd" fill-rule="evenodd" stroke-opacity="0" stroke="#000000" stroke-width="0" stroke-linecap="square" stroke-linejoin="bevel" d="M36.9946 0L71.3351 31.5966C84.1082 77.3367 37.3026 113.618 10.5413 61.3736C6.06884 51.5641 1.58227 39.1363 0 23.4702C15.4323 75.6539 73.1884 101.635 36.9946 0Z" sodipodi:nodetypes="ccccc"/><path id="shape22" transform="translate(181.278509208285, 38.1217445205084)" fill="#fffffd" fill-rule="evenodd" stroke-opacity="0" stroke="#000000" stroke-width="0" stroke-linecap="square" stroke-linejoin="bevel" d="M0 0C17.7822 5.10735 23.058 14.3815 31.431 32.6502C78.4659 121.494 20.4557 183.162 110.891 254.534C74.3762 232.278 46.1697 201.652 36.6066 129.547C20.1411 29.496 11.0273 27.5362 0 0Z" sodipodi:nodetypes="ccccc"/><path id="shape32" transform="translate(271.944491940496, 46.3175873134283)" fill="#fffffd" fill-rule="evenodd" stroke-opacity="0" stroke="#000000" stroke-width="0" stroke-linecap="square" stroke-linejoin="bevel" d="M215.597 0C237.557 6.12312 248.028 15.726 256.326 22.8345C280.105 114.395 197.242 241.063 126.612 233.323C63.6429 226.422 33.2855 180.097 26.1643 104.284C16.0556 19.2924 -16.9977 17.6626 11.016 34.3691C15.5337 38.6702 19.3371 41.9023 18.5446 43.0684C18.7213 43.1842 25.4515 43.8373 57.2786 154.404C77.7554 190.698 80.9405 187.686 89.8875 194.947C180.46 244.107 254.458 43.179 215.597 0Z" sodipodi:nodetypes="ccscccccc"/><path id="shape42" transform="translate(543.041428939924, 53.2861110630022)" fill="#fffffd" fill-rule="evenodd" stroke-opacity="0" stroke="#000000" stroke-width="0" stroke-linecap="square" stroke-linejoin="bevel" d="M4.35923 154.428C17.9969 119.457 39.4139 41.6948 0 19.849C27.1004 -2.00794 39.2202 -0.704322 49.8647 0.642899C44.1547 5.40457 39.8865 11.5804 37.6173 18.6704C27.1768 51.2918 22.4698 78.4906 23.3377 102.538C25.4408 130.175 22.8237 152.679 15.8391 165.464C10.7977 162.889 7.09023 158.688 4.35923 154.428Z" sodipodi:nodetypes="cccsccc"/><path id="shape52" transform="translate(507.566130941003, 180.969290012454)" fill="#fffffd" fill-rule="evenodd" stroke-opacity="0" stroke="#000000" stroke-width="0" stroke-linecap="square" stroke-linejoin="bevel" d="M0 94.2514C5.01782 90.2654 16.5994 76.3435 21.0949 67.7462C84.4823 108.092 156.796 68.116 169.538 0C174.986 8.47206 181.902 42.3465 171.617 69.4432C155.104 108.876 66.8898 140.519 0 94.2514Z" sodipodi:nodetypes="ccccc"/><ellipse id="shape62" transform="translate(307.827211265248, 114.010078246388)" rx="50.1044291240706" ry="3.90034478211328" cx="50.1044291240706" cy="3.90034478211328" fill="none" stroke-opacity="0" stroke="#000000" stroke-width="0" stroke-linecap="square" stroke-linejoin="bevel"/><path id="shape72" transform="translate(314.734833702074, 88.0310570212286)" fill="#fffffd" fill-rule="evenodd" stroke-opacity="0" stroke="#000000" stroke-width="0" stroke-linecap="square" stroke-linejoin="bevel" d="M8.83189 33.3278C27.3987 78.9775 23.1425 48.3296 52.4636 40.5816C80.5418 33.6735 89.273 52.5706 92.5915 34.8087C89.9872 10.633 56.3385 -7.83856 36.6421 4.58169C10.7708 -8.19195 1.68978 9.23783 0 14.5807" sodipodi:nodetypes="ccccc"/><path id="shape8" transform="translate(336.205835993389, 118.19165145236)" fill="#fffffd" fill-rule="evenodd" stroke-opacity="0" stroke="#000000" stroke-width="0" stroke-linecap="square" stroke-linejoin="bevel" d="M66.3432 33.1453C77.7939 -15.4656 70.8105 3.74313 39.4932 3.74313C15.1045 3.74313 -3.65102 7.72173 0.604843 27.6786C3.37028 33.4679 8.69869 38.2124 10.5395 46.4684C10.832 67.0676 27.6888 74.7328 43.4166 74.274C60.9573 75.3241 77.8106 55.0394 66.3432 33.1453Z" sodipodi:nodetypes="cccccc"/><path id="shape9" transform="translate(410.098737074407, 88.8266015279641)" fill="#fffffd" fill-rule="evenodd" d="M16.9046 3.45968L24.3584 0C58.2783 40.9403 22.4121 68.2151 0 100.64C15.8112 72.5981 32.8582 21.0041 16.9046 3.45968Z" sodipodi:nodetypes="cccc"/><path id="shape10" transform="translate(365.207259203278, 188.791676318358)" fill="#000f29" fill-rule="evenodd" d="M14.4013 0C11.7738 3.48681 6.91936 2.23353 0 6.30056L32.5154 2.02518C29.6493 1.10742 17.1321 2.58309 14.4013 0Z" sodipodi:nodetypes="cccc"/><path id="shape13" transform="matrix(-0.00697110102332958 -0.999975701580055 0.999975701580055 -0.00697110102332958 346.684344519513 192.029802836122)" fill="#337d98" fill-rule="evenodd" d="M23.4123 0.186947C23.4566 1.04551 26.4334 -0.574755 28.0486 0.233228C25.2117 1.1234 5.21865 6.07753 0 23.3614C0.68291 17.9309 2.87414 3.22571 23.4123 0.186947Z" sodipodi:nodetypes="cccc"/><path id="shape03" transform="matrix(0.00697110102332958 -0.999975701580055 -0.999975701580055 -0.00697110102332958 406.447279306446 190.645112849167)" fill="#337d98" fill-rule="evenodd" stroke-opacity="0" stroke="#000000" stroke-width="0" stroke-linecap="square" stroke-linejoin="bevel" d="M30.6056 0.493056C31.1573 1.5689 40.245 3.78288 38.3735 4.56474C35.8184 -0.235804 -2.6279 1.03404 0.900227 23.9143C-2.97923 13.9143 5.45376 -3.11338 30.6056 0.493056Z" sodipodi:nodetypes="cccc"/><ellipse id="shape04" transform="translate(372.149220638106, 181.972574683338)" rx="2.4404537887788" ry="2.03078946557325" cx="2.4404537887788" cy="2.03078946557325" fill="#1a1a1a" fill-rule="evenodd" stroke-opacity="0" stroke="#000000" stroke-width="0" stroke-linecap="square" stroke-linejoin="bevel"/><ellipse id="shape14" transform="translate(381.002317051517, 180.91763616196)" rx="2.19554725393542" ry="2.18943849242734" cx="2.19554725393542" cy="2.18943849242734" fill="#1a1a1a" fill-rule="evenodd" stroke-opacity="0" stroke="#000000" stroke-width="0" stroke-linecap="square" stroke-linejoin="bevel"/><path id="shape43" transform="matrix(0.99843300553625 0.0559601059314768 -0.0559601059314768 0.99843300553625 336.980815861455 142.757903091019)" fill="#1a1a1a" fill-rule="evenodd" stroke-opacity="0" stroke="#000000" stroke-width="0" stroke-linecap="square" stroke-linejoin="bevel" d="M0 4.83867C1.96756 6.99266 0.868188 6.05821 3.45206 8.45596C6.78656 -0.577292 22.5874 4.61858 24.7042 8.27167C20.5326 1.81318 27.0373 12.5892 23.6912 6.06633C15.3803 -0.67305 9.60207 -2.77174 0 4.83867Z" sodipodi:nodetypes="ccccc"/><path id="shape101" transform="matrix(0.997027056438537 -0.0770522467518995 0.0770522467518995 0.997027056438537 264.904188721961 48.4721522882185)" fill="url(#gradient0)" fill-rule="evenodd" stroke="url(#gradient1)" stroke-width="0" stroke-linecap="square" stroke-linejoin="bevel" d="M170.053 50.6946C163.682 54.8746 157.423 56.7132 147.45 58.3331L142.145 87.2347C130.645 85.0184 114.415 92.2256 99.4128 97.0582C82.5974 89.9272 65.8692 86.1339 55.7828 88.1534C53.8739 79.5545 46.1816 66.2762 47.401 57.6533C30.5305 53.5697 15.113 47.4959 0 41.0048C29.6708 25.2342 61.6101 11.3278 96.687 0C132.649 12.9342 165.701 26.3141 195.009 40.2671C190.097 43.8496 183.656 45.0461 178.699 47.1927M178.699 47.1927C178.684 54.2433 178.668 61.2938 178.653 68.3444C184.622 73.6714 183.786 79.4512 178.523 85.1497C179.689 91.2867 181.002 102.066 191.881 99.8902C198.294 99.4401 201.738 101.995 203.853 105.897C203.373 110.356 200.248 112.481 195.934 107.221C179.253 110.398 173.579 100.872 170.393 84.5678C166.263 81.0025 163.702 76.7905 169.895 69.2194L170.053 50.6946" sodipodi:nodetypes="ccccccccccccccccccc"/><path id="shape111" transform="matrix(0.99650315506252 -0.083814347073644 0.0903739581720903 0.995907901205896 324.010300726285 92.7533364490515)" fill="#64cecf" fill-rule="evenodd" stroke-opacity="0" stroke="#000000" stroke-width="0" stroke-linecap="square" stroke-linejoin="bevel" d="M0 0.199829L42.9846 15.2927L87.0789 0L76.0926 10.5763L43.0665 21.4406L11.9591 10.9109Z" sodipodi:nodetypes="ccccccc"/><path id="shape121" transform="matrix(0.99698025346146 -0.0776554840816535 0.0776554840816535 0.99698025346146 326.735799917721 110.348965038373)" fill="#27989a" fill-rule="evenodd" stroke-opacity="0" stroke="#000000" stroke-width="0" stroke-linecap="square" stroke-linejoin="bevel" d="M42.9279 13.825C56.047 8.2482 69.1248 3.20123 82.0588 0L80.1948 12.2966C64.8774 14.0611 56.503 18.0282 42.7381 22.2376C30.4515 18.0472 17.1332 12.5666 0 11.9931L0.143089 1.05688C16.2585 3.46263 30.7258 7.51335 42.9279 13.825Z" sodipodi:nodetypes="ccccccc"/><path id="shape15" transform="translate(287.519164287173, 24.6396779412604)" fill="#337d98" fill-rule="evenodd" d="M0 0L12.2636 1.57514Z" sodipodi:nodetypes="ccc"/><path id="shape16" transform="translate(375.905454404116, 192.079712224487)" fill="#9c8dab" fill-rule="evenodd" stroke="#000f29" stroke-width="1.28411351288037" stroke-linecap="square" stroke-linejoin="bevel" d="M0.571573 2.05164C2.61922 7.11644 7.26904 11.4472 1.81425 17.5835C0.382383 21.3795 -2.08926 23.7024 3.39098 37.2906L4.17344 28.2865L12.7039 35.1007C4.76793 25.4524 10.1602 19.2315 11.4401 15.9489C12.6243 5.79769 9.87988 4.17551 8.52772 0.651076C7.20674 0.883615 5.70553 0.389935 4.64204 0C3.56844 0.649299 1.90265 1.81733 0.571573 2.05164Z" sodipodi:nodetypes="ccccccccc"/><path id="shape17" transform="translate(382.758809862454, 199.648885391218)" fill="#554961" fill-rule="evenodd" d="M3.82534 0C3.51332 3.67194 5.39062 6.24923 2.41896 11.251C-0.613924 17.2129 1.98898 20.2525 2.64398 24.3021C1.65221 21.8014 1.6927 22.7354 0 14.9076C3.8864 6.79752 3.49174 2.15492 3.82534 0Z" sodipodi:nodetypes="ccccc"/><path id="shape44" transform="matrix(-0.936961191342091 0.349433435605157 0.349433435605157 0.936961191342091 404.566044631759 135.68368466321)" fill="#1a1a1a" fill-rule="evenodd" stroke-opacity="0" stroke="#000000" stroke-width="0" stroke-linecap="square" stroke-linejoin="bevel" d="M0 3.39247C1.43363 5.35402 1.09883 5.38659 2.82836 7.33804C5.81665 0.131002 19.0219 4.4525 20.9189 7.36706C17.1805 2.21425 23.0098 10.8117 20.0111 5.60756C12.5631 0.230652 8.60511 -2.67938 0 3.39247Z" sodipodi:nodetypes="ccccc"/><path id="shape05" transform="translate(588.476302285832, 64.7182803703026)" fill="#392c2c" fill-rule="evenodd" stroke-opacity="0" stroke="#000000" stroke-width="0" stroke-linecap="square" stroke-linejoin="bevel" d="M30.8881 53.8308C122.566 45.4548 174.187 17.2274 213.398 0C211.117 9.11112 152.702 40.5354 150.42 49.6465C149.089 54.9618 306.023 36.972 338.726 45.1226C350.419 48.0369 491.115 69.5692 514.93 69.3383C531.802 72.0516 668.387 41.4193 667.848 46.9291C667.688 48.5558 800.926 26.0303 809.468 31.8033C821.579 39.988 708.959 77.5085 695.927 83.8579C674.186 94.4501 520.483 109.43 519.135 111.309C509.747 124.397 349.694 108.506 325.276 106.246C313.315 112.052 162.844 118.959 159.631 131.789C108.469 132.087 59.1776 135.219 0 147.888C7.77238 135.223 14.268 50.4081 30.8881 53.8308Z" sodipodi:nodetypes="ccccccccccccc"/><path id="shape18" transform="translate(-647.355857586533, -40.2200804149582)" fill="#392c2c" fill-rule="evenodd" stroke-opacity="0" stroke="#000000" stroke-width="0" stroke-linecap="square" stroke-linejoin="bevel" d="M574.14 1.90488C610.641 22.0651 642.182 43.3501 668.963 65.7141L750.908 131.45C780.941 171.961 768.957 168.795 782.084 228.014C785.349 245.227 790.22 249.262 792.201 257.202C688.943 211.746 636.745 169.748 544.82 103.345C483.308 133.569 232.022 194.795 234.931 192.089C196.295 215.12 74.2848 312.324 49.5583 305.917C45.0129 290.932 4.63082 70.3735 0 55.2416C15.701 129.586 198.628 44.5391 204.639 41.873C272.161 16.5269 504.235 -6.94715 574.14 1.90488Z" sodipodi:nodetypes="ccccccccccc"/><path id="shape19" transform="matrix(4.04999319932464 0.012828876804837 -0.0130721667087749 3.97461759569565 -586.557072802737 37.4416603265019)" fill="#362a29" fill-rule="evenodd" d="M0 38.25C3.10575 39.7306 25.8651 23.5 41.4 16.56C54.074 11.9191 67.6612 9.65913 80.8061 6.67658C97.1422 3.01568 106.656 1.34505 120.33 0C139.23 11.4 159.66 28.38 178.56 39.78L180.45 44.1C163.426 37.7828 141.461 22.2885 119.52 6.84C96.19 13.8075 87.2674 18.6139 42.48 28.8C28.32 38.8281 14.16 50.4053 0 57.6Z" sodipodi:nodetypes="cccccccccc"/><path id="shape20" transform="matrix(4.04999319932464 0.012828876804837 -0.0130721667087749 3.97461759569565 589.443585039176 113.783811987608)" fill="#362a29" fill-rule="evenodd" d="M1.71 16.785C12.2317 16.5659 23.6682 14.0594 34.65 12.69C49.5708 12.175 64.6125 10.9352 79.65 9.72L126.18 13.86C140.876 11.6027 155.476 9.15284 170.28 7.11C176.621 4.53501 183.117 2.57893 189.57 0.45L191.07 0L189.57 1.44C182.99 3.87 171.598 8.77871 169.83 8.73C156.777 12.0949 142.08 12.765 128.07 15.39C126.205 16.402 123.071 17.2918 79.74 14.31C66.2458 16.4487 52.7848 18.6372 39.06 20.43C26.04 21.9865 13.02 23.5447 0 24.75Z" sodipodi:nodetypes="cccccccccccccc"/><path id="shape06" transform="matrix(4.04999319932464 0.012828876804837 -0.0130721667087749 3.97461759569565 711.480860660792 61.5856465371348)" fill="#362a29" fill-rule="evenodd" stroke-opacity="0" stroke="#000000" stroke-width="0" stroke-linecap="square" stroke-linejoin="bevel" d="M22.92 0C18.08 5.2 11.8 8.96 6.24 13.44L0 14.4C5.60689 12.0861 17.0577 3.93071 22.92 0Z" sodipodi:nodetypes="cccc"/>
</svg>
